<?xml version="1.0" encoding="UTF-8"?>
<svg version="1.1" xmlns="http://www.w3.org/2000/svg" width="300" height="300">
<path d="M0 0 C3.98094274 2.14358455 6.36682402 3.7790977 8 8 C9.15252265 16.27389946 7.94294171 23.2018988 3 30 C0.86292562 32.2030648 -1.15726595 33.8291421 -4 35 C-5.10859375 34.94457031 -6.2171875 34.88914063 -7.359375 34.83203125 C-11.09736418 35.61477597 -11.09736418 35.61477597 -12.57861328 38.36450195 C-14.178202 41.73697258 -15.55549571 45.13330704 -16.875 48.625 C-17.35461182 49.85436279 -17.83422363 51.08372559 -18.32836914 52.3503418 C-23.04908597 64.83911134 -23.04908597 64.83911134 -23 78 C-20.19561553 82.8568241 -16.57947684 87.04027684 -13 91.33984375 C-10.67353839 94.43421944 -8.86411951 97.60880045 -7 101 C-5.9378125 100.32453125 -4.875625 99.6490625 -3.78125 98.953125 C-2.35429042 98.05188737 -0.92720006 97.15085677 0.5 96.25 C1.54414062 95.58484375 1.54414062 95.58484375 2.609375 94.90625 C15.45527523 86.8180906 15.45527523 86.8180906 22 86 C20.90607999 82.11050663 19.07173698 79.95019483 16.3125 77.125 C13.01648699 73.48636609 13.01648699 73.48636609 12.875 69.3125 C13.97116312 66.08490858 14.83113645 63.63362002 17 61 C19.6875 60.1875 19.6875 60.1875 22 60 C22.33 59.01 22.66 58.02 23 57 C24.8984375 57.26953125 24.8984375 57.26953125 27 58 C27.9765625 59.63671875 27.9765625 59.63671875 28.625 61.6875 C28.97884766 62.77224609 28.97884766 62.77224609 29.33984375 63.87890625 C29.55769531 64.57886719 29.77554688 65.27882813 30 66 C30.5878125 67.546875 30.5878125 67.546875 31.1875 69.125 C32.08182991 72.28955197 32.36335721 74.72978507 32 78 C30.5 79.875 30.5 79.875 29 81 C33.124862 81 34.98477732 80.32831437 38.6875 78.6875 C42.38011618 77.07029583 45.9161615 75.70510043 49.8125 74.6875 C55.10940784 72.9886719 57.70590714 69.28926377 61 65 C65.42177072 59.63899874 70.15110484 55.01318726 75.3828125 50.44140625 C78.19355422 47.81944569 80.67042568 45.02843376 83.1875 42.125 C86.90269306 37.95417006 89.54241951 35.33655032 95 34 C95.99 34.33 96.98 34.66 98 35 C97.319375 35.7425 96.63875 36.485 95.9375 37.25 C93.71646324 39.75949064 93.71646324 39.75949064 94.25 42.3125 C94.4975 42.869375 94.745 43.42625 95 44 C92 46 92 46 88.4375 46.375 C87.303125 46.58125 86.16875 46.7875 85 47 C83.89870502 48.77111346 83.89870502 48.77111346 83 51 C80.79552208 54.70806032 78.48645723 58.34996329 76.1875 62 C75.57068359 62.99773437 74.95386719 63.99546875 74.31835938 65.0234375 C73.71185547 65.98507813 73.10535156 66.94671875 72.48046875 67.9375 C71.65905396 69.25041016 71.65905396 69.25041016 70.82104492 70.58984375 C67.65592889 74.77888054 63.6617603 77.29771434 59.125 79.8125 C54.34505788 82.61034038 50.67783974 85.88374227 47 90 C48.28100269 95.20266882 49.71476496 100.31137595 51.5703125 105.33984375 C51.84601074 106.08886963 52.12170898 106.83789551 52.40576172 107.60961914 C52.96162213 109.10118326 53.52810996 110.58883671 54.10595703 112.07202148 C55.60226303 116.09119063 56.50038461 118.89600679 55 123 C54.34 123.99 53.68 124.98 53 126 C52.73929619 128.94075761 52.73929619 128.94075761 52.83984375 132.28515625 C52.85080078 133.53876953 52.86175781 134.79238281 52.87304688 136.08398438 C52.90495117 138.05334961 52.90495117 138.05334961 52.9375 140.0625 C53.24963154 163.12555269 53.24963154 163.12555269 50 168 C49.34 168 48.68 168 48 168 C48.061875 168.928125 48.12375 169.85625 48.1875 170.8125 C48.16196156 177.08218596 47.04598339 183.80065499 42.70703125 188.46484375 C41.36705078 189.71974609 41.36705078 189.71974609 40 191 C38.26625834 192.9632869 36.55875601 194.93267574 34.875 196.9375 C34.17528076 197.76870361 34.17528076 197.76870361 33.46142578 198.61669922 C29.87305306 202.90524223 26.35113277 207.24507271 22.875 211.625 C22.40175293 212.21659912 21.92850586 212.80819824 21.44091797 213.41772461 C19.45859322 215.93932066 18.02293501 217.93119497 17 221 C17.31436775 223.75853417 17.31436775 223.75853417 17.9375 226.6875 C18.22947266 228.17830078 18.22947266 228.17830078 18.52734375 229.69921875 C18.68332031 230.45847656 18.83929688 231.21773437 19 232 C17.02 232.99 17.02 232.99 15 234 C10.79600962 231.53559184 9.49239982 228.55574681 8 224 C8.0625 221.1875 8.0625 221.1875 9 219 C9.639375 218.690625 10.27875 218.38125 10.9375 218.0625 C13.26389239 217.16790127 13.26389239 217.16790127 13.82421875 214.52734375 C15.36454917 209.90635248 17.58690651 205.78934144 19.875 201.5 C20.30941406 200.67113281 20.74382812 199.84226563 21.19140625 198.98828125 C27.24777073 187.54848168 27.24777073 187.54848168 31.6875 183.625 C34.69758499 180.20814677 35.15758279 177.40515517 35 173 C34.49490288 168.96417495 33.80391822 164.98637135 33 161 C32.76925781 161.55429688 32.53851563 162.10859375 32.30078125 162.6796875 C31.97464844 163.40414062 31.64851563 164.12859375 31.3125 164.875 C30.99925781 165.59429687 30.68601562 166.31359375 30.36328125 167.0546875 C29 169 29 169 26.57958984 169.82836914 C23.35299495 171.29386497 22.92616444 172.57131006 21.36328125 175.69140625 C16.0520708 183.67617006 6.90602114 185.27434936 -1.8125 187.9375 C-3.52771574 188.48967071 -5.24192191 189.04498782 -6.95507812 189.60351562 C-13.62403642 191.75910145 -20.2581191 193.82073953 -27.06640625 195.4921875 C-30.49257783 196.5072528 -30.78652126 196.61849613 -32.6328125 199.91796875 C-32.87644531 201.53638672 -32.87644531 201.53638672 -33.125 203.1875 C-33.31320313 204.27417969 -33.50140625 205.36085937 -33.6953125 206.48046875 C-33.84613281 207.72763672 -33.84613281 207.72763672 -34 209 C-36.375 208.75 -36.375 208.75 -39 208 C-41.14066884 205.13528141 -41.19622911 202.90751844 -40.75 199.4375 C-40.66234375 198.67308594 -40.5746875 197.90867188 -40.484375 197.12109375 C-40 195 -40 195 -38 192 C-36.38249481 191.55423085 -34.7631059 191.11436892 -33.13574219 190.70605469 C-28.64612672 189.22183339 -24.66932071 186.53425962 -20.625 184.125 C-10.15810985 177.92630857 -1.41022921 172.75666217 11 173 C12.16675357 167.76370014 13.32410226 162.52547989 14.47265625 157.28515625 C15.00255669 154.87759372 15.53250552 152.47004183 16.0625 150.0625 C16.4656543 148.21688477 16.4656543 148.21688477 16.87695312 146.33398438 C17.13541016 145.16287109 17.39386719 143.99175781 17.66015625 142.78515625 C18.01025757 141.19006226 18.01025757 141.19006226 18.36743164 139.56274414 C19 137 19 137 20 135 C21.56775136 123.28876332 21.33620374 116.69728081 14 107 C5.08571803 108.04670898 5.08571803 108.04670898 -3.4375 110.6875 C-7.3852812 112.1419457 -9.09411384 112.56235446 -13 111 C-17.45492817 105.57375143 -20.04321927 99.77679786 -22.6875 93.3125 C-23.46132321 91.45404526 -24.23602937 89.59595786 -25.01171875 87.73828125 C-25.34647217 86.92399658 -25.68122559 86.10971191 -26.02612305 85.27075195 C-27.70743511 81.00536773 -27.70743511 81.00536773 -30.6875 77.6875 C-32 76 -32 76 -31.875 72.5625 C-31.04782881 69.19473158 -30.42499932 67.42499932 -28 65 C-27.34 65 -26.68 65 -26 65 C-25.83274414 64.46995361 -25.66548828 63.93990723 -25.49316406 63.39379883 C-23.24330351 56.4381058 -20.48363941 49.73958525 -17.609375 43.02148438 C-17.0834375 41.74821289 -17.0834375 41.74821289 -16.546875 40.44921875 C-16.22557617 39.68955811 -15.90427734 38.92989746 -15.57324219 38.1472168 C-14.90974164 35.66191555 -15.09814123 34.38699182 -16 32 C-16.7425 31.1646875 -16.7425 31.1646875 -17.5 30.3125 C-20.21027463 26.13415995 -20.49012159 21.46275974 -19.52734375 16.625 C-17.64200069 10.5259667 -15.17362189 5.13260899 -9.625 1.625 C-5.87837009 -0.05452375 -4.01877787 -0.6840473 0 0 Z M-13.23046875 8.73046875 C-16.16821301 14.0438618 -18.02986783 20.06443365 -16.453125 26.08984375 C-15.02660858 29.73165759 -15.02660858 29.73165759 -12 32 C-6.99403113 32.50059689 -4.98216642 32.63006902 -0.6875 29.875 C4.87398935 23.92549977 5.61496659 19.0152607 5.4140625 11.015625 C5.1847054 7.77718575 5.1847054 7.77718575 2.875 4.6875 C-3.35646647 1.02990012 -9.0343255 2.82922603 -13.23046875 8.73046875 Z " fill="#DFE6E5" transform="translate(110,21)"/>
<path d="M0 0 C3.98094274 2.14358455 6.36682402 3.7790977 8 8 C9.15252265 16.27389946 7.94294171 23.2018988 3 30 C0.86292562 32.2030648 -1.15726595 33.8291421 -4 35 C-5.10859375 34.94457031 -6.2171875 34.88914063 -7.359375 34.83203125 C-11.09736418 35.61477597 -11.09736418 35.61477597 -12.57861328 38.36450195 C-14.178202 41.73697258 -15.55549571 45.13330704 -16.875 48.625 C-17.35461182 49.85436279 -17.83422363 51.08372559 -18.32836914 52.3503418 C-23.04908597 64.83911134 -23.04908597 64.83911134 -23 78 C-20.19561553 82.8568241 -16.57947684 87.04027684 -13 91.33984375 C-10.67353839 94.43421944 -8.86411951 97.60880045 -7 101 C-5.9378125 100.32453125 -4.875625 99.6490625 -3.78125 98.953125 C-2.35429042 98.05188737 -0.92720006 97.15085677 0.5 96.25 C1.54414062 95.58484375 1.54414062 95.58484375 2.609375 94.90625 C15.45527523 86.8180906 15.45527523 86.8180906 22 86 C20.90607999 82.11050663 19.07173698 79.95019483 16.3125 77.125 C13.01648699 73.48636609 13.01648699 73.48636609 12.875 69.3125 C13.97116312 66.08490858 14.83113645 63.63362002 17 61 C19.6875 60.1875 19.6875 60.1875 22 60 C22.33 59.01 22.66 58.02 23 57 C24.8984375 57.26953125 24.8984375 57.26953125 27 58 C27.9765625 59.63671875 27.9765625 59.63671875 28.625 61.6875 C28.86089844 62.41066406 29.09679687 63.13382813 29.33984375 63.87890625 C29.55769531 64.57886719 29.77554688 65.27882813 30 66 C30.5878125 67.546875 30.5878125 67.546875 31.1875 69.125 C32.08182991 72.28955197 32.36335721 74.72978507 32 78 C30.5 79.875 30.5 79.875 29 81 C30.32 81 31.64 81 33 81 C33.66 81.33 34.32 81.66 35 82 C34.48356389 97.19034483 33.68090925 110.87532452 22 122 C21.75765625 121.41992188 21.5153125 120.83984375 21.265625 120.2421875 C19.21606386 115.46513347 17.03182285 111.22289611 14 107 C5.08571803 108.04670898 5.08571803 108.04670898 -3.4375 110.6875 C-7.3852812 112.1419457 -9.09411384 112.56235446 -13 111 C-17.45492817 105.57375143 -20.04321927 99.77679786 -22.6875 93.3125 C-23.46132321 91.45404526 -24.23602937 89.59595786 -25.01171875 87.73828125 C-25.34647217 86.92399658 -25.68122559 86.10971191 -26.02612305 85.27075195 C-27.70743511 81.00536773 -27.70743511 81.00536773 -30.6875 77.6875 C-32 76 -32 76 -31.875 72.5625 C-31.04782881 69.19473158 -30.42499932 67.42499932 -28 65 C-27.34 65 -26.68 65 -26 65 C-25.74911621 64.20493042 -25.74911621 64.20493042 -25.49316406 63.39379883 C-23.24330351 56.4381058 -20.48363941 49.73958525 -17.609375 43.02148438 C-17.25875 42.17263672 -16.908125 41.32378906 -16.546875 40.44921875 C-16.22557617 39.68955811 -15.90427734 38.92989746 -15.57324219 38.1472168 C-14.90974164 35.66191555 -15.09814123 34.38699182 -16 32 C-16.495 31.443125 -16.99 30.88625 -17.5 30.3125 C-20.21027463 26.13415995 -20.49012159 21.46275974 -19.52734375 16.625 C-17.64200069 10.5259667 -15.17362189 5.13260899 -9.625 1.625 C-5.87837009 -0.05452375 -4.01877787 -0.6840473 0 0 Z M-13.23046875 8.73046875 C-16.16821301 14.0438618 -18.02986783 20.06443365 -16.453125 26.08984375 C-15.02660858 29.73165759 -15.02660858 29.73165759 -12 32 C-6.99403113 32.50059689 -4.98216642 32.63006902 -0.6875 29.875 C4.87398935 23.92549977 5.61496659 19.0152607 5.4140625 11.015625 C5.1847054 7.77718575 5.1847054 7.77718575 2.875 4.6875 C-3.35646647 1.02990012 -9.0343255 2.82922603 -13.23046875 8.73046875 Z " fill="#E5558D" transform="translate(110,21)"/>
<path d="M0 0 C-0.680625 0.7425 -1.36125 1.485 -2.0625 2.25 C-4.28353676 4.75949064 -4.28353676 4.75949064 -3.75 7.3125 C-3.5025 7.869375 -3.255 8.42625 -3 9 C-6 11 -6 11 -9.5625 11.375 C-10.696875 11.58125 -11.83125 11.7875 -13 12 C-14.10129498 13.77111346 -14.10129498 13.77111346 -15 16 C-17.20447792 19.70806032 -19.51354277 23.34996329 -21.8125 27 C-22.42931641 27.99773437 -23.04613281 28.99546875 -23.68164062 30.0234375 C-24.28814453 30.98507813 -24.89464844 31.94671875 -25.51953125 32.9375 C-26.06714111 33.81277344 -26.61475098 34.68804687 -27.17895508 35.58984375 C-30.34407111 39.77888054 -34.3382397 42.29771434 -38.875 44.8125 C-43.65494212 47.61034038 -47.32216026 50.88374227 -51 55 C-49.71899731 60.20266882 -48.28523504 65.31137595 -46.4296875 70.33984375 C-46.15398926 71.08886963 -45.87829102 71.83789551 -45.59423828 72.60961914 C-45.03837787 74.10118326 -44.47189004 75.58883671 -43.89404297 77.07202148 C-42.39773697 81.09119063 -41.49961539 83.89600679 -43 88 C-43.66 88.99 -44.32 89.98 -45 91 C-45.45601261 93.50896686 -45.45601261 93.50896686 -45.625 96.1875 C-45.69976562 97.08855469 -45.77453125 97.98960937 -45.8515625 98.91796875 C-45.90054688 99.60503906 -45.94953125 100.29210937 -46 101 C-46.33 101 -46.66 101 -47 101 C-47.33 98.36 -47.66 95.72 -48 93 C-48.51949219 93.27714844 -49.03898437 93.55429688 -49.57421875 93.83984375 C-50.62029297 94.38318359 -50.62029297 94.38318359 -51.6875 94.9375 C-52.71423828 95.47697266 -52.71423828 95.47697266 -53.76171875 96.02734375 C-58.18620248 97.95002516 -62.40564658 98.13688038 -67.1875 98.125 C-68.75564453 98.12886719 -68.75564453 98.12886719 -70.35546875 98.1328125 C-73 98 -73 98 -75 97 C-73.91832804 93.53864972 -72.3307661 91.01154902 -70.125 88.1875 C-67.15002695 84.34180313 -64.98341296 80.42674777 -63 76 C-62.608125 75.154375 -62.21625 74.30875 -61.8125 73.4375 C-59.7637637 67.29129109 -59.87047245 60.96105259 -59.9375 54.5625 C-59.94201172 53.73556641 -59.94652344 52.90863281 -59.95117188 52.05664062 C-59.96284189 50.03772854 -59.98077282 48.01885426 -60 46 C-60.99 45.67 -61.98 45.34 -63 45 C-61.5222978 44.39226026 -60.04273073 43.78905496 -58.5625 43.1875 C-57.64984375 42.81496094 -56.7371875 42.44242188 -55.796875 42.05859375 C-53.31233994 41.11821805 -50.8767018 40.42641875 -48.3125 39.75 C-42.95118942 38.00686739 -40.34166588 34.35120896 -37 30 C-32.57822928 24.63899874 -27.84889516 20.01318726 -22.6171875 15.44140625 C-19.80644578 12.81944569 -17.32957432 10.02843376 -14.8125 7.125 C-6.52767279 -2.17589093 -6.52767279 -2.17589093 0 0 Z " fill="#D84E9F" transform="translate(208,56)"/>
<path d="M0 0 C-0.2890625 1.8671875 -0.2890625 1.8671875 -1 4 C-11.15269423 10.39243711 -22.82008684 10.37318592 -34.47729492 10.37060547 C-36.66730742 10.37495985 -38.855266 10.4113516 -41.04492188 10.44921875 C-51.62228701 10.53382936 -65.65003707 10.34250319 -74 3 C-73.7578125 1.1328125 -73.7578125 1.1328125 -73 -1 C-56.30623992 -12.35175685 -16.56133776 -10.43045791 0 0 Z " fill="#000000" transform="translate(144,271)"/>
<path d="M0 0 C3.98094274 2.14358455 6.36682402 3.7790977 8 8 C9.15252265 16.27389946 7.94294171 23.2018988 3 30 C0.86292562 32.2030648 -1.15726595 33.8291421 -4 35 C-5.10859375 34.94457031 -6.2171875 34.88914063 -7.359375 34.83203125 C-11.09736418 35.61477597 -11.09736418 35.61477597 -12.57861328 38.36450195 C-14.178202 41.73697258 -15.55549571 45.13330704 -16.875 48.625 C-17.35461182 49.85436279 -17.83422363 51.08372559 -18.32836914 52.3503418 C-23.04908597 64.83911134 -23.04908597 64.83911134 -23 78 C-20.71028949 81.96547666 -17.91915751 85.41968714 -15 88.9375 C-11.86545147 92.80305332 -9.29925174 96.59310083 -7 101 C-3.535 100.01 -3.535 100.01 0 99 C2 100.75 2 100.75 4 103 C4 104.32 4 105.64 4 107 C-0.85824107 109.71304371 -5.29940997 112.1075583 -11 112 C-17.27288878 107.66871965 -19.83018359 99.75563928 -22.73046875 92.96875 C-23.03355957 92.26274658 -23.33665039 91.55674316 -23.64892578 90.8293457 C-24.24561637 89.43042359 -24.83421357 88.02801392 -25.41357422 86.62182617 C-26.77436926 83.40723452 -28.00515512 80.9935924 -30.21875 78.2421875 C-32 76 -32 76 -31.9375 72.4375 C-31.05147378 69.18873719 -30.36173254 67.36173254 -28 65 C-27.34 65 -26.68 65 -26 65 C-25.74911621 64.20493042 -25.74911621 64.20493042 -25.49316406 63.39379883 C-23.24330351 56.4381058 -20.48363941 49.73958525 -17.609375 43.02148438 C-17.25875 42.17263672 -16.908125 41.32378906 -16.546875 40.44921875 C-16.22557617 39.68955811 -15.90427734 38.92989746 -15.57324219 38.1472168 C-14.90974164 35.66191555 -15.09814123 34.38699182 -16 32 C-16.495 31.443125 -16.99 30.88625 -17.5 30.3125 C-20.21027463 26.13415995 -20.49012159 21.46275974 -19.52734375 16.625 C-17.64200069 10.5259667 -15.17362189 5.13260899 -9.625 1.625 C-5.87837009 -0.05452375 -4.01877787 -0.6840473 0 0 Z M-13.23046875 8.73046875 C-16.16821301 14.0438618 -18.02986783 20.06443365 -16.453125 26.08984375 C-15.02660858 29.73165759 -15.02660858 29.73165759 -12 32 C-6.99403113 32.50059689 -4.98216642 32.63006902 -0.6875 29.875 C4.87398935 23.92549977 5.61496659 19.0152607 5.4140625 11.015625 C5.1847054 7.77718575 5.1847054 7.77718575 2.875 4.6875 C-3.35646647 1.02990012 -9.0343255 2.82922603 -13.23046875 8.73046875 Z " fill="#EEB29A" transform="translate(110,21)"/>
<path d="M0 0 C0.33 0 0.66 0 1 0 C1.061875 0.928125 1.12375 1.85625 1.1875 2.8125 C1.70121778 6.0815434 1.70121778 6.0815434 4.0625 7.8125 C7.77829501 9.3146299 11.00922414 9.66179866 15 10 C14.4033252 10.22300781 13.80665039 10.44601563 13.19189453 10.67578125 C10.34687644 12.39458033 9.55318536 14.30172384 7.9296875 17.1875 C2.10061751 25.45231743 -6.61966875 27.20504728 -15.875 30 C-17.58574602 30.54732193 -19.29539596 31.09808224 -21.00390625 31.65234375 C-33.00554342 35.5106208 -33.00554342 35.5106208 -38.34814453 36.8215332 C-41.76755608 37.65844152 -41.76755608 37.65844152 -45 39 C-46.81894778 41.84777986 -46.81894778 41.84777986 -47.125 45.1875 C-47.31320313 46.27417969 -47.50140625 47.36085937 -47.6953125 48.48046875 C-47.79585938 49.31191406 -47.89640625 50.14335937 -48 51 C-50.375 50.75 -50.375 50.75 -53 50 C-55.14066884 47.13528141 -55.19622911 44.90751844 -54.75 41.4375 C-54.66234375 40.67308594 -54.5746875 39.90867188 -54.484375 39.12109375 C-54 37 -54 37 -52 34 C-50.38249481 33.55423085 -48.7631059 33.11436892 -47.13574219 32.70605469 C-42.64612672 31.22183339 -38.66932071 28.53425962 -34.625 26.125 C-24.15810985 19.92630857 -15.41022921 14.75666217 -3 15 C-1.85948394 10.01716284 -0.77774134 5.05531868 0 0 Z " fill="#ECAF94" transform="translate(124,179)"/>
<path d="M0 0 C3.96 0.33 7.92 0.66 12 1 C11.11073826 15.22818792 11.11073826 15.22818792 8 20 C6.54150686 21.21302445 5.08066177 22.42357349 3.59838867 23.60742188 C0.91774988 25.94289823 -1.12372932 28.72839203 -3.25 31.5625 C-6.02517958 35.24484753 -8.76094002 38.83862482 -12.00390625 42.125 C-17.34501416 47.49635451 -17.34501416 47.49635451 -19.17578125 54.63671875 C-18.68115927 57.88157926 -18.01582002 60.88213657 -17 64 C-18.98 64.99 -18.98 64.99 -21 66 C-25.20399038 63.53559184 -26.50760018 60.55574681 -28 56 C-27.9375 53.1875 -27.9375 53.1875 -27 51 C-26.360625 50.690625 -25.72125 50.38125 -25.0625 50.0625 C-22.73610761 49.16790127 -22.73610761 49.16790127 -22.17578125 46.52734375 C-20.63545083 41.90635248 -18.41309349 37.78934144 -16.125 33.5 C-15.69058594 32.67113281 -15.25617188 31.84226563 -14.80859375 30.98828125 C-8.59656025 19.2544402 -8.59656025 19.2544402 -4.375 15.9375 C-0.60814149 11.27849078 -0.5724201 5.83526761 0 0 Z " fill="#F0B59D" transform="translate(146,189)"/>
<path d="M0 0 C-0.680625 0.7425 -1.36125 1.485 -2.0625 2.25 C-4.28353676 4.75949064 -4.28353676 4.75949064 -3.75 7.3125 C-3.5025 7.869375 -3.255 8.42625 -3 9 C-6 11 -6 11 -9.5625 11.375 C-10.696875 11.58125 -11.83125 11.7875 -13 12 C-14.10129498 13.77111346 -14.10129498 13.77111346 -15 16 C-17.20447792 19.70806032 -19.51354277 23.34996329 -21.8125 27 C-22.42931641 27.99773437 -23.04613281 28.99546875 -23.68164062 30.0234375 C-24.28814453 30.98507813 -24.89464844 31.94671875 -25.51953125 32.9375 C-26.06714111 33.81277344 -26.61475098 34.68804687 -27.17895508 35.58984375 C-30.23647563 39.63647774 -34.22435632 42.32492597 -38.5625 44.875 C-39.30628906 45.32617188 -40.05007812 45.77734375 -40.81640625 46.2421875 C-43 47 -43 47 -45.27734375 46.1328125 C-45.84582031 45.75898437 -46.41429687 45.38515625 -47 45 C-47 44.34 -47 43.68 -47 43 C-47.66 43 -48.32 43 -49 43 C-48 40 -48 40 -45.5 38.5 C-42.31527245 36.50673523 -40.35835558 34.0848743 -38.0625 31.125 C-33.65855079 25.54168812 -28.71553751 20.85073544 -23.45727539 16.07739258 C-19.88821473 12.82076582 -16.6018775 9.53112507 -13.5 5.8125 C-9.80924765 1.49456097 -5.9068422 -1.9689474 0 0 Z " fill="#F1C1AB" transform="translate(208,56)"/>
<path d="M0 0 C3.98094274 2.14358455 6.36682402 3.7790977 8 8 C9.15252265 16.27389946 7.94294171 23.2018988 3 30 C-0.27172727 33.37275448 -2.67245567 34.92893717 -7.43432617 35.18383789 C-11.15411525 35.61870831 -11.15411525 35.61870831 -12.80444336 38.54443359 C-13.22862549 39.65125488 -13.65280762 40.75807617 -14.08984375 41.8984375 C-14.56357422 43.09984375 -15.03730469 44.30125 -15.52539062 45.5390625 C-15.99626636 46.81764478 -16.46696758 48.09629134 -16.9375 49.375 C-17.43304632 50.64681048 -17.93106814 51.91765937 -18.43164062 53.1875 C-21.04463071 59.42178546 -21.04463071 59.42178546 -22 66 C-22.98860509 67.01126652 -23.99040834 68.00968455 -25 69 C-26.2048149 71.26027345 -26.2048149 71.26027345 -27.1875 73.6875 C-27.53167969 74.49574219 -27.87585938 75.30398437 -28.23046875 76.13671875 C-28.61138672 77.05904297 -28.61138672 77.05904297 -29 78 C-29.66 78 -30.32 78 -31 78 C-32.05948517 73.58547846 -32.3447529 71.65384171 -30.1875 67.5625 C-29.1046875 66.2940625 -29.1046875 66.2940625 -28 65 C-27.34 65 -26.68 65 -26 65 C-25.74911621 64.20493042 -25.74911621 64.20493042 -25.49316406 63.39379883 C-23.24330351 56.4381058 -20.48363941 49.73958525 -17.609375 43.02148438 C-17.25875 42.17263672 -16.908125 41.32378906 -16.546875 40.44921875 C-16.22557617 39.68955811 -15.90427734 38.92989746 -15.57324219 38.1472168 C-14.90974164 35.66191555 -15.09814123 34.38699182 -16 32 C-16.495 31.443125 -16.99 30.88625 -17.5 30.3125 C-20.21027463 26.13415995 -20.49012159 21.46275974 -19.52734375 16.625 C-17.64200069 10.5259667 -15.17362189 5.13260899 -9.625 1.625 C-5.87837009 -0.05452375 -4.01877787 -0.6840473 0 0 Z M-13.23046875 8.73046875 C-16.16821301 14.0438618 -18.02986783 20.06443365 -16.453125 26.08984375 C-15.02660858 29.73165759 -15.02660858 29.73165759 -12 32 C-6.99403113 32.50059689 -4.98216642 32.63006902 -0.6875 29.875 C4.87398935 23.92549977 5.61496659 19.0152607 5.4140625 11.015625 C5.1847054 7.77718575 5.1847054 7.77718575 2.875 4.6875 C-3.35646647 1.02990012 -9.0343255 2.82922603 -13.23046875 8.73046875 Z " fill="#7E9ECF" transform="translate(110,21)"/>
<path d="M0 0 C1.8984375 0.26953125 1.8984375 0.26953125 4 1 C4.9765625 2.63671875 4.9765625 2.63671875 5.625 4.6875 C5.97884766 5.77224609 5.97884766 5.77224609 6.33984375 6.87890625 C6.55769531 7.57886719 6.77554688 8.27882813 7 9 C7.391875 10.03125 7.78375 11.0625 8.1875 12.125 C9.08182991 15.28955197 9.36335721 17.72978507 9 21 C8.0206121 22.02019573 7.02104551 23.02149805 6 24 C5.74930087 26.62570704 5.74930087 26.62570704 6 29 C4.02 29.33 2.04 29.66 0 30 C-0.185625 29.319375 -0.37125 28.63875 -0.5625 27.9375 C-1.99957147 25.0008757 -3.18825643 23.78030717 -5.5625 21.625 C-8.15532984 19.11895945 -8.98893228 18.03262064 -10.1875 14.5 C-9.93409443 9.76976261 -8.87096553 7.77758622 -6 4 C-3.25 3.0625 -3.25 3.0625 -1 3 C-0.67 2.01 -0.34 1.02 0 0 Z " fill="#F6AC8C" transform="translate(133,78)"/>
<path d="M0 0 C0.99 0 1.98 0 3 0 C6.14036417 6.28072834 4.49973861 18.36380383 2.6875 24.99609375 C0.14547254 32.40552607 -3.50721592 38.60741008 -8 45 C-8.66 45.99 -9.32 46.98 -10 48 C-10.66 48 -11.32 48 -12 48 C-12.4990541 44.00756723 -12.85963308 40.46546973 -10.76953125 36.90234375 C-9.70567481 35.58106032 -8.62583207 34.27250637 -7.53125 32.9765625 C-1.78612873 25.56066617 -1.793762 15.83244482 -1.39453125 6.88671875 C-1.10282166 1.10282166 -1.10282166 1.10282166 0 0 Z " fill="#FCF1F5" transform="translate(145,102)"/>
<path d="M0 0 C2.03219488 3.40351338 2.36891039 6.3232927 2.625 10.25 C2.69976562 11.32765625 2.77453125 12.4053125 2.8515625 13.515625 C2.92503906 14.74539062 2.92503906 14.74539062 3 16 C1.54550599 17.0055761 0.08627557 18.00430435 -1.375 19 C-2.18710938 19.556875 -2.99921875 20.11375 -3.8359375 20.6875 C-6 22 -6 22 -8 22 C-8.53603819 20.60993485 -9.05317473 19.21257351 -9.5625 17.8125 C-9.85253906 17.03519531 -10.14257812 16.25789063 -10.44140625 15.45703125 C-11.12066114 12.46925976 -11.05854257 10.88361595 -10 8 C-7.71484375 5.76171875 -7.71484375 5.76171875 -4.9375 3.6875 C-4.01839844 2.99011719 -3.09929687 2.29273438 -2.15234375 1.57421875 C-1.44207031 1.05472656 -0.73179688 0.53523438 0 0 Z " fill="#B3D9E6" transform="translate(108,27)"/>
<path d="M0 0 C0.19916016 1.91425781 0.19916016 1.91425781 0.40234375 3.8671875 C0.58052665 5.53647996 0.75892314 7.20574964 0.9375 8.875 C1.02451172 9.71675781 1.11152344 10.55851562 1.20117188 11.42578125 C1.28818359 12.23144531 1.37519531 13.03710938 1.46484375 13.8671875 C1.543396 14.61081543 1.62194824 15.35444336 1.70288086 16.12060547 C1.91637347 18.08446316 1.91637347 18.08446316 3 20 C2.34 20.99 1.68 21.98 1 23 C0.74605469 22.46890625 0.49210937 21.9378125 0.23046875 21.390625 C-0.11371094 20.68421875 -0.45789063 19.9778125 -0.8125 19.25 C-1.14894531 18.55390625 -1.48539063 17.8578125 -1.83203125 17.140625 C-3.59667157 13.83848467 -3.59667157 13.83848467 -6 11 C-8.98329207 10.73347383 -8.98329207 10.73347383 -12.1875 11.25 C-13.27417969 11.37890625 -14.36085938 11.5078125 -15.48046875 11.640625 C-16.31191406 11.75921875 -17.14335938 11.8778125 -18 12 C-17.34 11.67 -16.68 11.34 -16 11 C-16.33 9.35 -16.66 7.7 -17 6 C-13.87247409 4.35471386 -10.6946943 3.08297501 -7.375 1.875 C-6.41335937 1.52179688 -5.45171875 1.16859375 -4.4609375 0.8046875 C-2 0 -2 0 0 0 Z " fill="#C7449F" transform="translate(130,117)"/>
<path d="M0 0 C1.32 0.33 2.64 0.66 4 1 C4.33 3.31 4.66 5.62 5 8 C2.69 8.66 0.38 9.32 -2 10 C-1.67 11.65 -1.34 13.3 -1 15 C-1.66 15 -2.32 15 -3 15 C-3 15.99 -3 16.98 -3 18 C-2.34 18 -1.68 18 -1 18 C-1 20.31 -1 22.62 -1 25 C-2.12894876 24.06725891 -3.25300876 23.12859878 -4.375 22.1875 C-5.00148438 21.66542969 -5.62796875 21.14335938 -6.2734375 20.60546875 C-8 19 -8 19 -10 16 C-9.73883343 11.29900167 -9.02815674 7.67704747 -6 4 C-3.3125 3.1875 -3.3125 3.1875 -1 3 C-0.67 2.01 -0.34 1.02 0 0 Z " fill="#C77703" transform="translate(133,78)"/>
<path d="M0 0 C0.99 0 1.98 0 3 0 C0.94605385 7.83066968 -2.05817894 15.0893927 -5.30664062 22.4855957 C-5.82581055 23.68188599 -5.82581055 23.68188599 -6.35546875 24.90234375 C-6.67153076 25.61898193 -6.98759277 26.33562012 -7.31323242 27.07397461 C-8.16792993 29.13015531 -8.16792993 29.13015531 -8 32 C-8.98860509 33.01126652 -9.99040834 34.00968455 -11 35 C-12.2048149 37.26027345 -12.2048149 37.26027345 -13.1875 39.6875 C-13.53167969 40.49574219 -13.87585938 41.30398437 -14.23046875 42.13671875 C-14.61138672 43.05904297 -14.61138672 43.05904297 -15 44 C-15.66 44 -16.32 44 -17 44 C-18.05948517 39.58547846 -18.3447529 37.65384171 -16.1875 33.5625 C-15.465625 32.716875 -14.74375 31.87125 -14 31 C-13.34 31 -12.68 31 -12 31 C-11.60167969 29.75347656 -11.20335938 28.50695312 -10.79296875 27.22265625 C-8.89184256 21.51927767 -6.61576004 15.98809955 -4.3125 10.4375 C-3.89677734 9.42880859 -3.48105469 8.42011719 -3.05273438 7.38085938 C-2.03784021 4.9194494 -1.02021747 2.45920717 0 0 Z " fill="#395BDA" transform="translate(96,55)"/>
<path d="M0 0 C3.59681584 6.23448078 3.12400212 13.02832546 3 20 C4.98 20 6.96 20 9 20 C9.33 19.34 9.66 18.68 10 18 C10.66 18.66 11.32 19.32 12 20 C8.26025568 21.86987216 3.53209172 21.30641834 -0.5 20.5 C-0.995 20.335 -1.49 20.17 -2 20 C-2 21.65 -2 23.3 -2 25 C-2.33 25 -2.66 25 -3 25 C-5.88276851 9.0721855 -5.88276851 9.0721855 -2 2 C-1.34 1.34 -0.68 0.68 0 0 Z " fill="#B8BEC2" transform="translate(148,169)"/>
<path d="M0 0 C0 0.66 0 1.32 0 2 C0.66 2 1.32 2 2 2 C3.625 4.5 3.625 4.5 5 7 C3.88121617 8.17262904 2.75476949 9.33795138 1.625 10.5 C0.99851563 11.1496875 0.37203125 11.799375 -0.2734375 12.46875 C-2 14 -2 14 -4 14 C-4.53625 12.88625 -5.0725 11.7725 -5.625 10.625 C-7.34958891 7.55423918 -7.84217726 7.06980621 -11.25 5.5625 C-12.1575 5.376875 -13.065 5.19125 -14 5 C-9.4407093 1.96047287 -5.52837581 0 0 0 Z " fill="#B240A4" transform="translate(159,97)"/>
<path d="M0 0 C0.66 0 1.32 0 2 0 C2 0.99 2 1.98 2 3 C3.32 3.33 4.64 3.66 6 4 C6.66 7.63 7.32 11.26 8 15 C6.02 15.99 6.02 15.99 4 17 C-0.20399038 14.53559184 -1.50760018 11.55574681 -3 7 C-2.76871663 3.53074952 -2.4702708 2.4702708 0 0 Z " fill="#351F3C" transform="translate(121,238)"/>
<path d="M0 0 C0.66 0.66 1.32 1.32 2 2 C1.01 3.485 1.01 3.485 0 5 C1.32 5.33 2.64 5.66 4 6 C3.01 9.96 2.02 13.92 1 18 C-4 17 -4 17 -5.328125 15.22265625 C-6.08521123 12.71810936 -6.08273797 11.02497549 -5.75 8.4375 C-5.66234375 7.67308594 -5.5746875 6.90867188 -5.484375 6.12109375 C-5 4 -5 4 -3 1 C-2.01 0.67 -1.02 0.34 0 0 Z " fill="#502C4A" transform="translate(75,212)"/>
<path d="M0 0 C-0.680625 0.7425 -1.36125 1.485 -2.0625 2.25 C-4.28353676 4.75949064 -4.28353676 4.75949064 -3.75 7.3125 C-3.5025 7.869375 -3.255 8.42625 -3 9 C-6 11 -6 11 -9.625 11.5 C-10.73875 11.665 -11.8525 11.83 -13 12 C-13.33 12.66 -13.66 13.32 -14 14 C-14 13.34 -14 12.68 -14 12 C-15.65 12.33 -17.3 12.66 -19 13 C-18.06558465 11.72689688 -17.12732889 10.456612 -16.1875 9.1875 C-15.66542969 8.47980469 -15.14335937 7.77210937 -14.60546875 7.04296875 C-10.95297123 2.39514344 -6.23297705 -2.07765902 0 0 Z " fill="#D5AE97" transform="translate(208,56)"/>
<path d="M0 0 C2.25 2.8125 2.25 2.8125 4 6 C3 9 3 9 0.85546875 10.203125 C-0.02496094 10.54859375 -0.90539062 10.8940625 -1.8125 11.25 C-2.68519531 11.60578125 -3.55789062 11.9615625 -4.45703125 12.328125 C-7.13641236 13.03604136 -8.43212123 12.9337741 -11 12 C-10.40364189 8.42185133 -9.000066 6.45577139 -6.625 3.75 C-6.01914063 3.04359375 -5.41328125 2.3371875 -4.7890625 1.609375 C-3 0 -3 0 0 0 Z " fill="#EDECE7" transform="translate(204,26)"/>
<path d="M0 0 C0.66 0 1.32 0 2 0 C1.89300781 0.80824219 1.78601563 1.61648437 1.67578125 2.44921875 C1.55589844 3.51785156 1.43601562 4.58648437 1.3125 5.6875 C1.18488281 6.74324219 1.05726562 7.79898438 0.92578125 8.88671875 C1.0118465 12.4969294 2.09947606 14.00909503 4 17 C3.67 17.99 3.34 18.98 3 20 C2.01 19.01 1.02 18.02 0 17 C0.66 18.65 1.32 20.3 2 22 C1.34 22.33 0.68 22.66 0 23 C-5.19517562 15.0464738 -5.19517562 15.0464738 -4.734375 10.21484375 C-3.57808494 6.36621164 -2.23551884 3.35327826 0 0 Z " fill="#EDC4B0" transform="translate(86,87)"/>
<path d="M0 0 C0.33 0 0.66 0 1 0 C1.33 1.65 1.66 3.3 2 5 C2.33 5 2.66 5 3 5 C2.70493512 13.11428418 -0.42619728 18.61937581 -6.3125 24.1875 C-10.4465701 25.43733515 -13.94845608 24.22693814 -18 23 C-17.67 22.34 -17.34 21.68 -17 21 C-15.783125 21.0825 -14.56625 21.165 -13.3125 21.25 C-10.12310835 21.23873006 -9.05400394 21.03120228 -6.1875 19.375 C-0.79469627 13.51995595 -0.39471256 7.64925711 0 0 Z " fill="#6781BD" transform="translate(115,31)"/>
<path d="M0 0 C0.66 0 1.32 0 2 0 C1.96519531 0.59167969 1.93039063 1.18335937 1.89453125 1.79296875 C1.72436825 6.7601076 1.83144791 9.90728689 5 14 C4.01 15.485 4.01 15.485 3 17 C2.74605469 16.46890625 2.49210938 15.9378125 2.23046875 15.390625 C-0.28030698 9.76385931 -0.28030698 9.76385931 -4 5 C-7.12586875 4.66602213 -7.12586875 4.66602213 -10 5 C-9.34 4.67 -8.68 4.34 -8 4 C-8 3.34 -8 2.68 -8 2 C-6.2984375 1.7834375 -6.2984375 1.7834375 -4.5625 1.5625 C-1.19222799 1.38828522 -1.19222799 1.38828522 0 0 Z " fill="#993772" transform="translate(128,123)"/>
<path d="M0 0 C1.32 0.66 2.64 1.32 4 2 C3.5875 2.474375 3.175 2.94875 2.75 3.4375 C0.28208092 7.05123865 -1.30670219 10.97734326 -3 15 C-3.66 15 -4.32 15 -5 15 C-6.05948517 10.58547846 -6.3447529 8.65384171 -4.1875 4.5625 C-3.465625 3.716875 -2.74375 2.87125 -2 2 C-1.34 2 -0.68 2 0 2 C0 1.34 0 0.68 0 0 Z " fill="#333968" transform="translate(84,84)"/>
<path d="M0 0 C0.33 0 0.66 0 1 0 C1.12117188 0.88042969 1.24234375 1.76085938 1.3671875 2.66796875 C1.53476563 3.82941406 1.70234375 4.99085937 1.875 6.1875 C2.03742188 7.33605469 2.19984375 8.48460937 2.3671875 9.66796875 C2.94060245 12.68724625 3.74759043 15.20575848 5 18 C7.64 18 10.28 18 13 18 C12.34 18.66 11.68 19.32 11 20 C6.52102957 20 4.53235108 19.46291398 1.125 16.5 C-1.60885 12.76464059 -2.32421558 8.57227101 -2 4 C-1.00390625 1.7265625 -1.00390625 1.7265625 0 0 Z " fill="#83A1D8" transform="translate(92,36)"/>
<path d="M0 0 C0.66 0.33 1.32 0.66 2 1 C2 2.32 2 3.64 2 5 C-5.25289454 7.41763151 -11.42361705 7.51527659 -19 6 C-19 5.67 -19 5.34 -19 5 C-17.87980469 4.80664062 -16.75960937 4.61328125 -15.60546875 4.4140625 C-14.13274651 4.1514114 -12.66009381 3.88837017 -11.1875 3.625 C-10.44951172 3.49867188 -9.71152344 3.37234375 -8.95117188 3.2421875 C-5.39405354 2.59836518 -3.04505916 2.03003944 0 0 Z " fill="#D8D4CE" transform="translate(158,149)"/>
<path d="M0 0 C2.8478938 2.43142543 3.84185784 4.73781689 5.04296875 8.25390625 C5.39423828 9.27291016 5.74550781 10.29191406 6.10742188 11.34179688 C6.64206055 12.93604492 6.64206055 12.93604492 7.1875 14.5625 C7.73954102 16.16254883 7.73954102 16.16254883 8.30273438 17.79492188 C11 25.69655902 11 25.69655902 11 28 C10.01 27.67 9.02 27.34 8 27 C7.2265625 25.2421875 7.2265625 25.2421875 6.625 22.875 C5.16892718 17.50232487 3.43577947 12.26445612 1.62548828 7.00341797 C0 2.2116529 0 2.2116529 0 0 Z " fill="#F1608F" transform="translate(154,110)"/>
<path d="M0 0 C0.66 0.66 1.32 1.32 2 2 C-1.63 5.63 -5.26 9.26 -9 13 C-9.99 12.67 -10.98 12.34 -12 12 C-10.37860535 10.18415766 -8.75313264 8.3722838 -7.125 6.5625 C-6.66480469 6.04623047 -6.20460937 5.52996094 -5.73046875 4.99804688 C-2.2265625 1.11328125 -2.2265625 1.11328125 0 0 Z " fill="#D6B19F" transform="translate(181,76)"/>
<path d="M0 0 C0.66 0 1.32 0 2 0 C1.85904936 1.6254308 1.71207913 3.25034051 1.5625 4.875 C1.48128906 5.77992187 1.40007812 6.68484375 1.31640625 7.6171875 C1 10 1 10 0 12 C-0.66 12 -1.32 12 -2 12 C-2 11.34 -2 10.68 -2 10 C-2.66 10 -3.32 10 -4 10 C-3.52449439 8.51965236 -3.04448784 7.04074979 -2.5625 5.5625 C-2.29566406 4.73878906 -2.02882813 3.91507812 -1.75390625 3.06640625 C-1 1 -1 1 0 0 Z " fill="#D9B1A2" transform="translate(86,87)"/>
<path d="M0 0 C0.99 0 1.98 0 3 0 C2.6083965 5.95507399 1.62875405 10.62819824 -1 16 C-1.66 15.67 -2.32 15.34 -3 15 C-2.690625 14.01 -2.38125 13.02 -2.0625 12 C-0.91566793 8.02268878 -0.43287644 4.11232621 0 0 Z " fill="#EBC8AF" transform="translate(155,192)"/>
<path d="M0 0 C0.66 0 1.32 0 2 0 C1.731875 0.66 1.46375 1.32 1.1875 2 C-0.25705047 5.64939067 -1.62871178 9.32245433 -3 13 C-3.99 13 -4.98 13 -6 13 C-5.49890261 7.73847744 -3.79035827 3.79035827 0 0 Z " fill="#87A0D4" transform="translate(97,26)"/>
<path d="M0 0 C2.3125 -0.3125 2.3125 -0.3125 5 0 C7.54114478 2.89164751 7.9812362 4.78233986 8.3125 8.625 C8 12 8 12 6 15 C5.85304688 14.00419922 5.85304688 14.00419922 5.703125 12.98828125 C4.79525337 7.62714274 3.97963587 3.97963587 0 0 Z " fill="#84A2E6" transform="translate(110,24)"/>
<path d="M0 0 C2.0625 0.4375 2.0625 0.4375 4 1 C4 1.66 4 2.32 4 3 C3.01 3.495 3.01 3.495 2 4 C1.34786708 6.02463255 1.34786708 6.02463255 1 8 C-0.32 7.67 -1.64 7.34 -3 7 C-1.125 1.125 -1.125 1.125 0 0 Z " fill="#F3C3A7" transform="translate(198,58)"/>
<path d="M0 0 C0.33 0.99 0.66 1.98 1 3 C0.21625 3.45375 -0.5675 3.9075 -1.375 4.375 C-4.03698031 5.88428742 -4.03698031 5.88428742 -6 8 C-6.99 7.67 -7.98 7.34 -9 7 C-8.07347299 5.82460004 -7.13336613 4.65989423 -6.1875 3.5 C-5.66542969 2.8503125 -5.14335937 2.200625 -4.60546875 1.53125 C-3 0 -3 0 0 0 Z " fill="#DCDBD3" transform="translate(204,26)"/>
<path d="M0 0 C0.66 0 1.32 0 2 0 C1.67 4.62 1.34 9.24 1 14 C-1.37247875 9.25504251 -1.25100218 7.18737832 -1 2 C-0.67 1.34 -0.34 0.68 0 0 Z " fill="#A3AEB3" transform="translate(161,169)"/>
<path d="M0 0 C-0.639375 0.763125 -1.27875 1.52625 -1.9375 2.3125 C-4.14232781 4.88246713 -4.14232781 4.88246713 -5 8 C-6.32 8 -7.64 8 -9 8 C-8.67 7.01 -8.34 6.02 -8 5 C-7.34 5 -6.68 5 -6 5 C-6.33 3.68 -6.66 2.36 -7 1 C-3.375 -1.125 -3.375 -1.125 0 0 Z " fill="#A4866B" transform="translate(208,56)"/>
<path d="M0 0 C0.66 0 1.32 0 2 0 C1.39009109 3.55780196 0.4216319 6.6828589 -1 10 C-1.66 10 -2.32 10 -3 10 C-2.25 3.375 -2.25 3.375 0 0 Z " fill="#D0AD99" transform="translate(81,87)"/>
<path d="M0 0 C0.66 0.33 1.32 0.66 2 1 C0.88266271 2.50571657 -0.24410035 4.00444292 -1.375 5.5 C-2.00148438 6.3353125 -2.62796875 7.170625 -3.2734375 8.03125 C-3.84320313 8.6809375 -4.41296875 9.330625 -5 10 C-5.66 10 -6.32 10 -7 10 C-6.84518205 7.29068581 -6.51827919 5.53415961 -4.59765625 3.5546875 C-3.10228292 2.32320358 -1.5537076 1.1570163 0 0 Z " fill="#A9C7CD" transform="translate(104,30)"/>
<path d="M0 0 C0.66 0.33 1.32 0.66 2 1 C-0.31 3.97 -2.62 6.94 -5 10 C-5.99 9.01 -6.98 8.02 -8 7 C-5.36 4.69 -2.72 2.38 0 0 Z " fill="#FCA787" transform="translate(134,228)"/>
<path d="M0 0 C3.6327391 2.42182607 3.68131947 3.50445117 4.6875 7.625 C4.93886719 8.62789062 5.19023437 9.63078125 5.44921875 10.6640625 C5.72185547 11.82035156 5.72185547 11.82035156 6 13 C5.01 12.67 4.02 12.34 3 12 C2.05078125 9.27734375 2.05078125 9.27734375 1.3125 5.9375 C1.06113281 4.83277344 0.80976563 3.72804687 0.55078125 2.58984375 C0.36902344 1.73519531 0.18726563 0.88054687 0 0 Z " fill="#F25BA3" transform="translate(159,125)"/>
<path d="M0 0 C0.99 0 1.98 0 3 0 C2.25 3.375 2.25 3.375 1 7 C-0.98 7.99 -0.98 7.99 -3 9 C-2.01 6.03 -1.02 3.06 0 0 Z " fill="#3356C6" transform="translate(96,55)"/>
<path d="M0 0 C1.53617893 2.04823857 2.06549977 3.4559293 1.7578125 6.01171875 C1.27462334 8.08199846 0.81012793 10.03318942 0 12 C-0.99 12.495 -0.99 12.495 -2 13 C-1.85769192 11.58297487 -1.71099254 10.1663904 -1.5625 8.75 C-1.48128906 7.96109375 -1.40007812 7.1721875 -1.31640625 6.359375 C-1.02365007 4.17635361 -0.57935581 2.1226818 0 0 Z " fill="#C8C9C8" transform="translate(127,166)"/>
<path d="M0 0 C0.33 0 0.66 0 1 0 C1 3.96 1 7.92 1 12 C-2 9 -2 9 -2.3125 6.5625 C-1.99264998 3.9397298 -1.33802108 2.25791056 0 0 Z " fill="#98B6F9" transform="translate(92,36)"/>
<path d="M0 0 C0.928125 0.5259375 0.928125 0.5259375 1.875 1.0625 C2.57625 1.371875 3.2775 1.68125 4 2 C4.66 1.67 5.32 1.34 6 1 C6.66 1.66 7.32 2.32 8 3 C3.56923077 5.09230769 3.56923077 5.09230769 0.6875 4.625 C0.130625 4.41875 -0.42625 4.2125 -1 4 C-0.67 2.68 -0.34 1.36 0 0 Z " fill="#8A9DB9" transform="translate(194,34)"/>
<path d="M0 0 C0.66 0.33 1.32 0.66 2 1 C1.05065487 2.67180274 0.09026687 4.33733936 -0.875 6 C-1.40867188 6.928125 -1.94234375 7.85625 -2.4921875 8.8125 C-2.98976562 9.534375 -3.48734375 10.25625 -4 11 C-4.66 11 -5.32 11 -6 11 C-4.54955729 6.89041233 -2.48889248 3.56741255 0 0 Z " fill="#FEDABF" transform="translate(184,82)"/>
<path d="M0 0 C0.99 0.66 1.98 1.32 3 2 C2.34 3.32 1.68 4.64 1 6 C0.01 6 -0.98 6 -2 6 C-2 4.35 -2 2.7 -2 1 C-1.34 0.67 -0.68 0.34 0 0 Z " fill="#E3D9D7" transform="translate(125,235)"/>
<path d="M0 0 C0.99 0 1.98 0 3 0 C3 1.32 3 2.64 3 4 C1.02 4.33 -0.96 4.66 -3 5 C-1.125 1.125 -1.125 1.125 0 0 Z " fill="#F1EAE9" transform="translate(78,212)"/>
<path d="M0 0 C-2.85478326 1.90318884 -4.41941308 2.4619099 -7.6875 3.125 C-8.49574219 3.29257813 -9.30398437 3.46015625 -10.13671875 3.6328125 C-10.75160156 3.75398437 -11.36648437 3.87515625 -12 4 C-11.34 3.67 -10.68 3.34 -10 3 C-10 2.34 -10 1.68 -10 1 C-6.52674819 -0.1577506 -3.63932552 -0.06866652 0 0 Z " fill="#B7957E" transform="translate(98,211)"/>
<path d="M0 0 C0.99 0.33 1.98 0.66 3 1 C1.37660195 2.70884005 -0.29319053 4.37446717 -2 6 C-2.66 6 -3.32 6 -4 6 C-3.6875 4.125 -3.6875 4.125 -3 2 C-2.01 1.34 -1.02 0.68 0 0 Z " fill="#782585" transform="translate(159,105)"/>
<path d="M0 0 C0.66 0.33 1.32 0.66 2 1 C1.67 1.99 1.34 2.98 1 4 C-0.65 4.33 -2.3 4.66 -4 5 C-4.33 4.01 -4.66 3.02 -5 2 C-2.625 0.9375 -2.625 0.9375 0 0 Z " fill="#D6D5D1" transform="translate(206,31)"/>
<path d="M0 0 C4.93928888 -0.3367697 5.78492722 -0.16130459 10 3 C6.7 3 3.4 3 0 3 C0 2.01 0 1.02 0 0 Z " fill="#6E88BB" transform="translate(104,21)"/>
<path d="M0 0 C2.25 0.25 2.25 0.25 4 1 C2.8125 2.5 2.8125 2.5 1 4 C-1.6875 4.1875 -1.6875 4.1875 -4 4 C-2.25 1.9375 -2.25 1.9375 0 0 Z " fill="#C95389" transform="translate(111,117)"/>
<path d="M0 0 C0.33 1.32 0.66 2.64 1 4 C0.34 4 -0.32 4 -1 4 C-0.67 2.68 -0.34 1.36 0 0 Z " fill="#000000" transform="translate(142,185)"/>
<path d="" fill="#000000" transform="translate(0,0)"/>
</svg>
