<?xml version="1.0" encoding="UTF-8"?>
<svg version="1.1" xmlns="http://www.w3.org/2000/svg" width="300" height="300">
<path d="M0 0 C1.175625 1.2065625 1.175625 1.2065625 2.375 2.4375 C5.15250082 5.14886984 5.87459703 5.38380115 9.5 6 C12.9494478 6.6229772 14.14055438 7.10119915 17.125 9.25 C19 12 19 12 19.125 15.125 C17.72689702 18.69792983 16.44361724 19.44217315 13 21 C12.01 21.33 11.02 21.66 10 22 C9.30062468 23.31647119 8.63270867 24.65022151 8 26 C7.34 26.33 6.68 26.66 6 27 C5.566875 28.155 5.13375 29.31 4.6875 30.5 C4.130625 31.655 3.57375 32.81 3 34 C0.625 34.6875 0.625 34.6875 -2 35 C-2.825 35.70125 -3.65 36.4025 -4.5 37.125 C-7 39 -7 39 -9.8125 38.75 C-10.534375 38.5025 -11.25625 38.255 -12 38 C-12.33 36.68 -12.66 35.36 -13 34 C-15.12751496 35.91476346 -16.40500366 37.65323171 -17.9375 40.125 C-20 43 -20 43 -21.9296875 43.45703125 C-24.66141363 44.17346509 -25.44783245 45.36751205 -27.1875 47.5625 C-29.86223675 50.8245159 -32.6362426 53.37871858 -35.9375 56 C-39.04704414 58.59911264 -39.04704414 58.59911264 -40.5703125 62.2109375 C-40.61559843 64.62997912 -40.61559843 64.62997912 -40 68 C-40 68.66 -40 69.32 -40 70 C-39.67 70.66 -39.34 71.32 -39 72 C-39.061875 70.865625 -39.12375 69.73125 -39.1875 68.5625 C-38.66032682 63.85978054 -36.21252049 62.07075099 -32.625 59.1875 C-30.75084251 57.79053565 -28.87593649 56.39457448 -27 55 C-26.46375 54.42636719 -25.9275 53.85273437 -25.375 53.26171875 C-23.25675474 51.31798801 -21.0244113 51.60327248 -18.2734375 51.6953125 C-14.33131799 52.22363779 -10.69337902 53.56368594 -7 55 C-7 55.99 -7 56.98 -7 58 C-7.556875 57.855625 -8.11375 57.71125 -8.6875 57.5625 C-13.93622782 56.28578242 -18.59809477 55.71061222 -24 56 C-24.33 56.33 -24.66 56.66 -25 57 C-23.02 57.495 -23.02 57.495 -21 58 C-21 58.66 -21 59.32 -21 60 C-19.98679688 59.98259766 -19.98679688 59.98259766 -18.953125 59.96484375 C-18.06109375 59.95582031 -17.1690625 59.94679687 -16.25 59.9375 C-15.36828125 59.92589844 -14.4865625 59.91429687 -13.578125 59.90234375 C-11.2181162 59.99173802 -9.25501476 60.33087179 -7 61 C-7 61.99 -7 62.98 -7 64 C-7.99 64.33 -8.98 64.66 -10 65 C-11.16516969 77.71283356 -11.58957121 89.54624632 -9.06738281 102.08886719 C-8.26238843 106.1291359 -7.84527821 109.88053227 -8 114 C-7.21625 113.95875 -6.4325 113.9175 -5.625 113.875 C-3 114 -3 114 -1 116 C-1 117.88870289 -1.00416037 119.77752492 -1.0324707 121.66601562 C-0.96148512 126.76843814 -0.6723633 131.85154711 2.55224609 135.99414062 C4.51424598 137.81018994 6.53635302 139.41331088 8.6875 141 C9.38294922 141.55816406 10.07839844 142.11632812 10.79492188 142.69140625 C15.11053677 146.03590706 18.7001369 147.55235221 24 149 C26.24887254 150.52370285 28.24825902 152.01388091 30.3125 153.75 C31.54226703 154.74956187 32.77277248 155.74821575 34.00390625 156.74609375 C34.65117676 157.2757373 35.29844727 157.80538086 35.96533203 158.35107422 C39.51579571 161.22842383 43.13613048 164.0155229 46.75 166.8125 C48.28802879 168.0061647 49.82578682 169.20017836 51.36328125 170.39453125 C52.1310791 170.99088379 52.89887695 171.58723633 53.68994141 172.20166016 C55.9573302 173.96678231 58.21963327 175.73821342 60.48046875 177.51171875 C70.43229744 185.30788125 80.52516271 192.88280546 90.73681641 200.33496094 C92.95709945 201.96843778 95.15860098 203.6242682 97.35546875 205.2890625 C98.03585205 205.80057861 98.71623535 206.31209473 99.41723633 206.83911133 C100.68134707 207.7904654 101.94068569 208.74820932 103.1940918 209.71362305 C106.40957873 212.11844431 108.95147937 213.70581684 113 214 C115.76309357 213.44525427 115.76309357 213.44525427 118 212 C119.06294866 209.62880683 119.00852053 208.08520533 118.75 205.5 C119 203 119 203 121.125 200.5625 C124 199 124 199 127.125 199.375 C130.82231858 201.46478876 131.70840304 202.97325653 133 207 C133.11909302 213.43102303 130.23873298 217.46435094 126 222 C120.89072898 225.77112861 116.30220909 226.52518409 110 226 C103.72528912 223.69170404 98.8258568 219.68006798 93.8125 215.375 C92.31129854 214.11161263 90.80868272 212.84990402 89.3046875 211.58984375 C88.57217773 210.9747998 87.83966797 210.35975586 87.08496094 209.72607422 C84.25715866 207.38502479 81.36134828 205.15772893 78.4375 202.9375 C72.86629446 198.70004941 67.43128191 194.3153494 62.01147461 189.88647461 C57.1455664 185.91555323 52.22840985 182.0178945 47.27612305 178.15551758 C43.59051545 175.27281817 39.95560813 172.33566695 36.34082031 169.36474609 C27.11953752 161.79028454 17.62269517 154.61582794 8.03613281 147.51123047 C6.64185559 146.47638922 5.26791643 145.41373378 3.91259766 144.32836914 C1.29422183 142.50981121 -0.71714827 142.63079959 -3.875 142.5625 C-9.241636 142.24181078 -11.99922876 141.57963742 -16 138 C-18 135 -18 135 -18 132 C-20.97 132.33 -23.94 132.66 -27 133 C-27 132.01 -27 131.02 -27 130 C-28.0828125 129.62875 -28.0828125 129.62875 -29.1875 129.25 C-33.57654263 127.29931439 -36.37875681 125.43068652 -38.328125 120.94140625 C-38.63234375 119.82636719 -38.9365625 118.71132812 -39.25 117.5625 C-39.56453125 116.45003906 -39.8790625 115.33757812 -40.203125 114.19140625 C-41.25907036 109.96244862 -42 106.3769438 -42 102 C-43.4651315 100.04754807 -43.4651315 100.04754807 -45.5078125 98.2421875 C-46.24773437 97.53320312 -46.98765625 96.82421875 -47.75 96.09375 C-49.30912686 94.63719727 -50.8689989 93.18144171 -52.4296875 91.7265625 C-58.28580398 86.11276808 -62.37780706 80.24438588 -66 73 C-68.97 73.99 -71.94 74.98 -75 76 C-75 76.66 -75 77.32 -75 78 C-83.02770189 77.44636539 -90.33854067 75.34312056 -98 73 C-98 72.34 -98 71.68 -98 71 C-97.31035156 71.13277344 -96.62070313 71.26554687 -95.91015625 71.40234375 C-92.94399798 71.95976993 -89.97405843 72.48643836 -87 73 C-86.1440625 73.15210937 -85.288125 73.30421875 -84.40625 73.4609375 C-79.91349583 74.24835543 -79.91349583 74.24835543 -75.8125 72.6875 C-75.214375 72.130625 -74.61625 71.57375 -74 71 C-72.01985568 70.27648573 -70.02178685 69.59734611 -68 69 C-68.33 67.68 -68.66 66.36 -69 65 C-75.50768677 63.45580314 -81.8307533 62.78634467 -88.5 62.75 C-89.19416016 62.74097656 -89.88832031 62.73195312 -90.60351562 62.72265625 C-94.28733286 62.74434703 -95.85435352 62.90290235 -99 65 C-95.04 66.32 -91.08 67.64 -87 69 C-87 69.66 -87 70.32 -87 71 C-94.28486056 70.1752988 -94.28486056 70.1752988 -97.8046875 69.3125 C-100.59089987 68.64803743 -103.13501767 68.0895307 -106 68 C-109.23739948 70.14748404 -109.23739948 70.14748404 -111 73 C-100.42285028 77.80600472 -89.6276535 81.35641502 -78.0625 82.75 C-71.80230158 83.84876639 -68.87274776 87.1721237 -65 92 C-63.79537109 93.48306641 -63.79537109 93.48306641 -62.56640625 94.99609375 C-47.16809083 114.33522422 -47.16809083 114.33522422 -46 122 C-45.67 122.66 -45.34 123.32 -45 124 C-43.78993435 136.22319475 -43.78993435 136.22319475 -46.234375 139.8125 C-48.8392661 141.56628807 -50.88600685 142 -54 142 C-53.67 142.66 -53.34 143.32 -53 144 C-49.535 143.01 -49.535 143.01 -46 142 C-46 143.32 -46 144.64 -46 146 C-46.66 146.33 -47.32 146.66 -48 147 C-47.01 147.33 -46.02 147.66 -45 148 C-47.54656278 150.81940879 -49.1720512 152.56252014 -53 153 C-55.33300933 153.03888349 -57.66709801 153.0448635 -60 153 C-63.74066528 163.68761509 -66.18545441 174.53879742 -68.25390625 185.65234375 C-68.9164376 188.62506293 -69.77169666 191.22182035 -71 194 C-65.44946714 193.25640327 -65.44946714 193.25640327 -60 192 C-60.19851562 192.72445312 -60.39703125 193.44890625 -60.6015625 194.1953125 C-61.44571658 200.13749514 -57.78118822 206.10175984 -54.625 211 C-51.7429033 214.2938248 -50.10429063 214.84009178 -46 216 C-43 219.2 -43 219.2 -43 222 C-37.72 222.33 -32.44 222.66 -27 223 C-27 223.66 -27 224.32 -27 225 C-41.12847212 226.75043017 -53.2876001 225.55253635 -67 222 C-68.05767578 221.72671875 -69.11535156 221.4534375 -70.20507812 221.171875 C-73.62093514 220.27822566 -77.03007554 219.362753 -80.4375 218.4375 C-82.08238403 217.99845337 -82.08238403 217.99845337 -83.76049805 217.55053711 C-84.78699463 217.2644458 -85.81349121 216.97835449 -86.87109375 216.68359375 C-87.78818115 216.43150146 -88.70526855 216.17940918 -89.65014648 215.91967773 C-92.09619863 214.9623501 -93.31972923 213.98703931 -95 212 C-93.99295004 208.55924598 -92.8231157 205.59319868 -90.9375 202.5625 C-89.26313504 199.80255776 -88.9457987 198.58671512 -88.5 195.1875 C-88.335 194.135625 -88.17 193.08375 -88 192 C-87.35289063 191.72800781 -86.70578125 191.45601562 -86.0390625 191.17578125 C-83.70330676 190.14509839 -83.70330676 190.14509839 -83.2421875 187.3125 C-83.12101562 186.219375 -82.99984375 185.12625 -82.875 184 C-82.72675781 182.824375 -82.57851562 181.64875 -82.42578125 180.4375 C-82.28527344 179.303125 -82.14476562 178.16875 -82 177 C-80.65402945 169.26929733 -78.79527422 161.63589967 -77 154 C-77.99 154.66 -78.98 155.32 -80 156 C-83.97617113 155.68609175 -86.70155506 154.16754953 -90 152 C-87.74259377 154.33524782 -85.7194239 156.18705073 -83 158 C-83.33 158.99 -83.66 159.98 -84 161 C-84.66 161 -85.32 161 -86 161 C-86 161.66 -86 162.32 -86 163 C-88.57103303 162.48579339 -91.13340425 161.96897576 -93.6875 161.375 C-96.01864219 160.76572985 -96.01864219 160.76572985 -98 162 C-100.06298828 161.74633789 -100.06298828 161.74633789 -102.5703125 161.22265625 C-103.91416016 160.94711914 -103.91416016 160.94711914 -105.28515625 160.66601562 C-106.69087891 160.36727539 -106.69087891 160.36727539 -108.125 160.0625 C-109.06988281 159.86720703 -110.01476562 159.67191406 -110.98828125 159.47070312 C-113.32683666 158.9864568 -115.66391088 158.49598428 -118 158 C-115.98947647 148.65609189 -107.95924066 140.33327324 -100.75 134.48828125 C-98.88733344 133.10101993 -98.88733344 133.10101993 -98 131 C-99.3303125 131.37125 -99.3303125 131.37125 -100.6875 131.75 C-104 132 -104 132 -106.4375 130.625 C-108.57391779 128.43647446 -110.38295505 126.28170256 -112.23828125 123.86328125 C-114.58321309 120.82309072 -116.94890838 117.80488749 -119.359375 114.81640625 C-125.43842055 107.22202494 -131.16673759 99.55283378 -136.25 91.25 C-136.70342773 90.51209229 -137.15685547 89.77418457 -137.62402344 89.01391602 C-143.80665798 78.64954196 -144.30190439 68.42322829 -141.87890625 56.6640625 C-137.37305359 43.00632244 -124.48956985 35.43525852 -112.44287109 29.21777344 C-88.69662342 17.38024761 -60.3387065 4.87525495 -33.5234375 12.1484375 C-31.21310274 12.92808607 -29.14243975 13.8432837 -27 15 C-27 15.66 -27 16.32 -27 17 C-27.9178125 17.14695312 -28.835625 17.29390625 -29.78125 17.4453125 C-38.51751861 19.04206748 -44.87997067 20.76322588 -50.484375 27.88671875 C-53.44324514 32.3163214 -55.2941238 36.97215435 -57 42 C-55.19402344 41.98259766 -55.19402344 41.98259766 -53.3515625 41.96484375 C-51.77604321 41.95546566 -50.20052225 41.94636548 -48.625 41.9375 C-47.8309375 41.92912109 -47.036875 41.92074219 -46.21875 41.91210938 C-40.2265625 41.88671875 -40.2265625 41.88671875 -38 43 C-38 43.99 -38 44.98 -38 46 C-44.93 46 -51.86 46 -59 46 C-59 46.99 -59 47.98 -59 49 C-57.84242187 48.97679687 -56.68484375 48.95359375 -55.4921875 48.9296875 C-53.95313149 48.91091852 -52.41406845 48.89271954 -50.875 48.875 C-50.11445312 48.85824219 -49.35390625 48.84148437 -48.5703125 48.82421875 C-44.86091247 48.79224116 -42.22294375 48.92140643 -38.67578125 50.171875 C-36.06392407 51.3140581 -36.06392407 51.3140581 -33.98828125 50.0234375 C-33.43527344 49.47945312 -32.88226563 48.93546875 -32.3125 48.375 C-31.73242188 47.80652344 -31.15234375 47.23804688 -30.5546875 46.65234375 C-30.04164063 46.10707031 -29.52859375 45.56179687 -29 45 C-28.319375 44.319375 -27.63875 43.63875 -26.9375 42.9375 C-26.4734375 41.9784375 -26.4734375 41.9784375 -26 41 C-26.29261719 40.30132812 -26.58523437 39.60265625 -26.88671875 38.8828125 C-28.28356611 35.26571302 -28.60821747 31.76723347 -28.875 27.9375 C-28.98328125 26.87692383 -28.98328125 26.87692383 -29.09375 25.79492188 C-29.3414311 22.32412754 -29.31190724 20.43569106 -27.2578125 17.56640625 C-25 16 -25 16 -22.90234375 15.515625 C-20.81708065 15.16985471 -20.81708065 15.16985471 -19.69140625 13.109375 C-19.31886719 12.33078125 -18.94632812 11.5521875 -18.5625 10.75 C-16.12927003 6.05520965 -13.41714168 2.77257057 -9.125 -0.375 C-5.75019879 -1.36758859 -3.37754007 -0.88882633 0 0 Z M-62 215 C-61.67 215.99 -61.34 216.98 -61 218 C-60.34 217.34 -59.68 216.68 -59 216 C-59.99 215.67 -60.98 215.34 -62 215 Z " fill="#3048A7" transform="translate(162,37)"/>
<path d="M0 0 C1.175625 1.2065625 1.175625 1.2065625 2.375 2.4375 C5.15250082 5.14886984 5.87459703 5.38380115 9.5 6 C12.9494478 6.6229772 14.14055438 7.10119915 17.125 9.25 C19 12 19 12 19.125 15.125 C17.72689702 18.69792983 16.44361724 19.44217315 13 21 C11.515 21.495 11.515 21.495 10 22 C9.30062468 23.31647119 8.63270867 24.65022151 8 26 C7.34 26.33 6.68 26.66 6 27 C5.566875 28.155 5.13375 29.31 4.6875 30.5 C4.130625 31.655 3.57375 32.81 3 34 C0.625 34.6875 0.625 34.6875 -2 35 C-3.2375 36.051875 -3.2375 36.051875 -4.5 37.125 C-7 39 -7 39 -9.8125 38.75 C-10.534375 38.5025 -11.25625 38.255 -12 38 C-12.495 36.02 -12.495 36.02 -13 34 C-15.12751496 35.91476346 -16.40500366 37.65323171 -17.9375 40.125 C-20 43 -20 43 -21.9296875 43.45703125 C-24.66141363 44.17346509 -25.44783245 45.36751205 -27.1875 47.5625 C-29.86223675 50.8245159 -32.6362426 53.37871858 -35.9375 56 C-39.04704414 58.59911264 -39.04704414 58.59911264 -40.5703125 62.2109375 C-40.61559843 64.62997912 -40.61559843 64.62997912 -40 68 C-40 68.66 -40 69.32 -40 70 C-39.67 70.66 -39.34 71.32 -39 72 C-39.061875 70.865625 -39.12375 69.73125 -39.1875 68.5625 C-38.66032682 63.85978054 -36.21252049 62.07075099 -32.625 59.1875 C-30.75084251 57.79053565 -28.87593649 56.39457448 -27 55 C-26.46375 54.42636719 -25.9275 53.85273437 -25.375 53.26171875 C-23.25675474 51.31798801 -21.0244113 51.60327248 -18.2734375 51.6953125 C-14.33131799 52.22363779 -10.69337902 53.56368594 -7 55 C-7 55.99 -7 56.98 -7 58 C-7.556875 57.855625 -8.11375 57.71125 -8.6875 57.5625 C-13.93622782 56.28578242 -18.59809477 55.71061222 -24 56 C-24.33 56.33 -24.66 56.66 -25 57 C-23.02 57.495 -23.02 57.495 -21 58 C-21 58.66 -21 59.32 -21 60 C-19.98679688 59.98259766 -19.98679688 59.98259766 -18.953125 59.96484375 C-18.06109375 59.95582031 -17.1690625 59.94679687 -16.25 59.9375 C-15.36828125 59.92589844 -14.4865625 59.91429687 -13.578125 59.90234375 C-11.2181162 59.99173802 -9.25501476 60.33087179 -7 61 C-7 61.99 -7 62.98 -7 64 C-8.485 64.495 -8.485 64.495 -10 65 C-11.16516969 77.71283356 -11.58957121 89.54624632 -9.06738281 102.08886719 C-8.26238843 106.1291359 -7.84527821 109.88053227 -8 114 C-7.21625 113.95875 -6.4325 113.9175 -5.625 113.875 C-3 114 -3 114 -1 116 C-1 117.88870289 -1.00416037 119.77752492 -1.0324707 121.66601562 C-0.96148512 126.76843814 -0.6723633 131.85154711 2.55224609 135.99414062 C4.51424598 137.81018994 6.53635302 139.41331088 8.6875 141 C9.38294922 141.55816406 10.07839844 142.11632812 10.79492188 142.69140625 C15.11053677 146.03590706 18.7001369 147.55235221 24 149 C26.24887254 150.52370285 28.24825902 152.01388091 30.3125 153.75 C31.54226703 154.74956187 32.77277248 155.74821575 34.00390625 156.74609375 C34.65117676 157.2757373 35.29844727 157.80538086 35.96533203 158.35107422 C39.51579571 161.22842383 43.13613048 164.0155229 46.75 166.8125 C48.28802879 168.0061647 49.82578682 169.20017836 51.36328125 170.39453125 C52.1310791 170.99088379 52.89887695 171.58723633 53.68994141 172.20166016 C55.9573302 173.96678231 58.21963327 175.73821342 60.48046875 177.51171875 C70.43229744 185.30788125 80.52516271 192.88280546 90.73681641 200.33496094 C92.95709945 201.96843778 95.15860098 203.6242682 97.35546875 205.2890625 C98.03585205 205.80057861 98.71623535 206.31209473 99.41723633 206.83911133 C100.68134707 207.7904654 101.94068569 208.74820932 103.1940918 209.71362305 C106.40957873 212.11844431 108.95147937 213.70581684 113 214 C115.76309357 213.44525427 115.76309357 213.44525427 118 212 C119.06294866 209.62880683 119.00852053 208.08520533 118.75 205.5 C119 203 119 203 121.125 200.5625 C124 199 124 199 127.125 199.375 C130.82231858 201.46478876 131.70840304 202.97325653 133 207 C133.11909302 213.43102303 130.23873298 217.46435094 126 222 C120.89072898 225.77112861 116.30220909 226.52518409 110 226 C103.72528912 223.69170404 98.8258568 219.68006798 93.8125 215.375 C92.31129854 214.11161263 90.80868272 212.84990402 89.3046875 211.58984375 C88.57217773 210.9747998 87.83966797 210.35975586 87.08496094 209.72607422 C84.25715866 207.38502479 81.36134828 205.15772893 78.4375 202.9375 C72.86629446 198.70004941 67.43128191 194.3153494 62.01147461 189.88647461 C57.1455664 185.91555323 52.22840985 182.0178945 47.27612305 178.15551758 C43.59051545 175.27281817 39.95560813 172.33566695 36.34082031 169.36474609 C27.11953752 161.79028454 17.62269517 154.61582794 8.03613281 147.51123047 C6.64185559 146.47638922 5.26791643 145.41373378 3.91259766 144.32836914 C1.29422183 142.50981121 -0.71714827 142.63079959 -3.875 142.5625 C-9.241636 142.24181078 -11.99922876 141.57963742 -16 138 C-18 135 -18 135 -18 132 C-20.97 132.33 -23.94 132.66 -27 133 C-27 132.01 -27 131.02 -27 130 C-28.0828125 129.62875 -28.0828125 129.62875 -29.1875 129.25 C-33.57654263 127.29931439 -36.37875681 125.43068652 -38.328125 120.94140625 C-38.63234375 119.82636719 -38.9365625 118.71132812 -39.25 117.5625 C-39.56453125 116.45003906 -39.8790625 115.33757812 -40.203125 114.19140625 C-41.25907036 109.96244862 -42 106.3769438 -42 102 C-43.4651315 100.04754807 -43.4651315 100.04754807 -45.5078125 98.2421875 C-46.24773437 97.53320312 -46.98765625 96.82421875 -47.75 96.09375 C-49.30912686 94.63719727 -50.8689989 93.18144171 -52.4296875 91.7265625 C-58.28580398 86.11276808 -62.37780706 80.24438588 -66 73 C-68.97 73.99 -71.94 74.98 -75 76 C-75 76.66 -75 77.32 -75 78 C-83.02770189 77.44636539 -90.33854067 75.34312056 -98 73 C-98 72.34 -98 71.68 -98 71 C-97.31035156 71.13277344 -96.62070313 71.26554687 -95.91015625 71.40234375 C-92.94399798 71.95976993 -89.97405843 72.48643836 -87 73 C-86.1440625 73.15210937 -85.288125 73.30421875 -84.40625 73.4609375 C-79.91349583 74.24835543 -79.91349583 74.24835543 -75.8125 72.6875 C-75.214375 72.130625 -74.61625 71.57375 -74 71 C-72.01985568 70.27648573 -70.02178685 69.59734611 -68 69 C-68.57344937 66.13275314 -68.8614515 65.1385485 -71 63 C-70.34 63 -69.68 63 -69 63 C-69.18415432 60.05908413 -69.18415432 60.05908413 -70 57 C-71.95163118 55.56362302 -71.95163118 55.56362302 -74 55 C-73.67 54.34 -73.34 53.68 -73 53 C-72.01 53.66 -71.02 54.32 -70 55 C-69.67 53.68 -69.34 52.36 -69 51 C-62.75976441 49.28278529 -56.68873812 48.78339378 -50.25 48.75 C-49.16924194 48.73646484 -49.16924194 48.73646484 -48.06665039 48.72265625 C-44.63684221 48.74167332 -41.95760218 49.0152249 -38.71484375 50.1796875 C-36.0684516 51.31422136 -36.0684516 51.31422136 -33.98828125 50.0234375 C-33.43527344 49.47945312 -32.88226563 48.93546875 -32.3125 48.375 C-31.73242188 47.80652344 -31.15234375 47.23804688 -30.5546875 46.65234375 C-30.04164063 46.10707031 -29.52859375 45.56179687 -29 45 C-28.319375 44.319375 -27.63875 43.63875 -26.9375 42.9375 C-26.4734375 41.9784375 -26.4734375 41.9784375 -26 41 C-26.29261719 40.30132812 -26.58523437 39.60265625 -26.88671875 38.8828125 C-28.28356611 35.26571302 -28.60821747 31.76723347 -28.875 27.9375 C-28.98328125 26.87692383 -28.98328125 26.87692383 -29.09375 25.79492188 C-29.3414311 22.32412754 -29.31190724 20.43569106 -27.2578125 17.56640625 C-25 16 -25 16 -22.90234375 15.515625 C-20.81708065 15.16985471 -20.81708065 15.16985471 -19.69140625 13.109375 C-19.31886719 12.33078125 -18.94632812 11.5521875 -18.5625 10.75 C-16.12927003 6.05520965 -13.41714168 2.77257057 -9.125 -0.375 C-5.75019879 -1.36758859 -3.37754007 -0.88882633 0 0 Z " fill="#384D9E" transform="translate(162,37)"/>
<path d="M0 0 C0 0.66 0 1.32 0 2 C-0.9178125 2.14695312 -1.835625 2.29390625 -2.78125 2.4453125 C-11.51751861 4.04206748 -17.87997067 5.76322588 -23.484375 12.88671875 C-26.44324514 17.3163214 -28.2941238 21.97215435 -30 27 C-28.19402344 26.98259766 -28.19402344 26.98259766 -26.3515625 26.96484375 C-24.77604321 26.95546566 -23.20052225 26.94636548 -21.625 26.9375 C-20.8309375 26.92912109 -20.036875 26.92074219 -19.21875 26.91210938 C-13.2265625 26.88671875 -13.2265625 26.88671875 -11 28 C-11 28.99 -11 29.98 -11 31 C-17.93 31 -24.86 31 -32 31 C-32 32.32 -32 33.64 -32 35 C-35.3 35.66 -38.6 36.32 -42 37 C-42.33 37.99 -42.66 38.98 -43 40 C-43.99 40 -44.98 40 -46 40 C-44.68 40.66 -43.36 41.32 -42 42 C-42 43.98 -42 45.96 -42 48 C-45.19916717 49.06638906 -47.01267247 48.72970392 -50.2734375 48.265625 C-53.95184633 47.90726998 -57.61997644 47.84185496 -61.3125 47.8125 C-62.01850342 47.79968994 -62.72450684 47.78687988 -63.4519043 47.77368164 C-67.19292598 47.76605697 -68.80689768 47.87126512 -72 50 C-68.04 51.32 -64.08 52.64 -60 54 C-60 54.66 -60 55.32 -60 56 C-67.28486056 55.1752988 -67.28486056 55.1752988 -70.8046875 54.3125 C-73.58758824 53.64882719 -76.13866624 53.094478 -79 53 C-82.00179441 55.16744884 -82.00179441 55.16744884 -84 58 C-87.33548529 59.32387598 -87.97755897 59.0092316 -91.50390625 57.55859375 C-92.86328025 56.86416009 -94.21588783 56.15636815 -95.5625 55.4375 C-96.26761719 55.07269531 -96.97273438 54.70789063 -97.69921875 54.33203125 C-99.80746311 53.23574418 -101.90524279 52.12181289 -104 51 C-105.15371094 50.38253906 -106.30742188 49.76507813 -107.49609375 49.12890625 C-110.00624814 47.7677432 -112.50790514 46.39388357 -115 45 C-113.99066819 36.1970935 -108.26406229 29.26310582 -101.5078125 23.765625 C-76.55519387 6.19773774 -29.89976924 -16.1430679 0 0 Z " fill="#4E82DE" transform="translate(135,52)"/>
<path d="M0 0 C1.175625 1.2065625 1.175625 1.2065625 2.375 2.4375 C5.15250082 5.14886984 5.87459703 5.38380115 9.5 6 C12.9494478 6.6229772 14.14055438 7.10119915 17.125 9.25 C19 12 19 12 19.125 15.125 C17.72689702 18.69792983 16.44361724 19.44217315 13 21 C11.515 21.495 11.515 21.495 10 22 C9.30062468 23.31647119 8.63270867 24.65022151 8 26 C7.34 26.33 6.68 26.66 6 27 C5.566875 28.155 5.13375 29.31 4.6875 30.5 C4.130625 31.655 3.57375 32.81 3 34 C0.625 34.6875 0.625 34.6875 -2 35 C-3.2375 36.051875 -3.2375 36.051875 -4.5 37.125 C-7 39 -7 39 -9.8125 38.75 C-10.534375 38.5025 -11.25625 38.255 -12 38 C-12.495 36.02 -12.495 36.02 -13 34 C-15.12751496 35.91476346 -16.40500366 37.65323171 -17.9375 40.125 C-20 43 -20 43 -21.9296875 43.45703125 C-24.66141363 44.17346509 -25.44783245 45.36751205 -27.1875 47.5625 C-29.86223675 50.8245159 -32.6362426 53.37871858 -35.9375 56 C-39.0743659 58.62021904 -39.0743659 58.62021904 -40.5703125 62.28125 C-40.61909787 64.72570632 -40.61909787 64.72570632 -40 68 C-44.95 68.33 -49.9 68.66 -55 69 C-50.65741956 77.88714136 -45.76646011 85.1652126 -39.35668945 92.70507812 C-38.80843506 93.35154297 -38.26018066 93.99800781 -37.6953125 94.6640625 C-37.20047363 95.23592285 -36.70563477 95.8077832 -36.19580078 96.39697266 C-35 98 -35 98 -34 101 C-33.01 101 -32.02 101 -31 101 C-30.01 104.465 -30.01 104.465 -29 108 C-26.03 107.01 -23.06 106.02 -20 105 C-20 105.66 -20 106.32 -20 107 C-21.134375 107.4125 -22.26875 107.825 -23.4375 108.25 C-25.46189491 109.23495877 -25.46189491 109.23495877 -27 111 C-27.93682286 115.00278859 -28.04512922 118.89968797 -28 123 C-25.69 123 -23.38 123 -21 123 C-20.67 121.35 -20.34 119.7 -20 118 C-19.01 118 -18.02 118 -17 118 C-17.309375 118.804375 -17.309375 118.804375 -17.625 119.625 C-18.21077411 122.1226217 -18.21077411 122.1226217 -17 124.875 C-15.87505062 128.39046681 -16.15564585 130.45371257 -17 134 C-16.01 134 -15.02 134 -14 134 C-13.87625 134.639375 -13.7525 135.27875 -13.625 135.9375 C-13.315625 136.9584375 -13.315625 136.9584375 -13 138 C-12.34 138.33 -11.68 138.66 -11 139 C-11.33 137.02 -11.66 135.04 -12 133 C-11.34 133 -10.68 133 -10 133 C-7 138.625 -7 138.625 -7 142 C-10.55150592 141.69558521 -11.97138802 141.02406007 -14.75 138.6875 C-17 136 -17 136 -18 132 C-20.97 132.33 -23.94 132.66 -27 133 C-27 132.01 -27 131.02 -27 130 C-28.0828125 129.62875 -28.0828125 129.62875 -29.1875 129.25 C-33.57654263 127.29931439 -36.37875681 125.43068652 -38.328125 120.94140625 C-38.63234375 119.82636719 -38.9365625 118.71132812 -39.25 117.5625 C-39.56453125 116.45003906 -39.8790625 115.33757812 -40.203125 114.19140625 C-41.25907036 109.96244862 -42 106.3769438 -42 102 C-43.4651315 100.04754807 -43.4651315 100.04754807 -45.5078125 98.2421875 C-46.24773437 97.53320312 -46.98765625 96.82421875 -47.75 96.09375 C-49.30912686 94.63719727 -50.8689989 93.18144171 -52.4296875 91.7265625 C-58.28580398 86.11276808 -62.37780706 80.24438588 -66 73 C-68.97 73.99 -71.94 74.98 -75 76 C-75 76.66 -75 77.32 -75 78 C-83.02770189 77.44636539 -90.33854067 75.34312056 -98 73 C-98 72.34 -98 71.68 -98 71 C-97.31035156 71.13277344 -96.62070313 71.26554687 -95.91015625 71.40234375 C-92.94399798 71.95976993 -89.97405843 72.48643836 -87 73 C-86.1440625 73.15210937 -85.288125 73.30421875 -84.40625 73.4609375 C-79.91349583 74.24835543 -79.91349583 74.24835543 -75.8125 72.6875 C-75.214375 72.130625 -74.61625 71.57375 -74 71 C-72.01985568 70.27648573 -70.02178685 69.59734611 -68 69 C-68.57344937 66.13275314 -68.8614515 65.1385485 -71 63 C-70.34 63 -69.68 63 -69 63 C-69.18415432 60.05908413 -69.18415432 60.05908413 -70 57 C-71.95163118 55.56362302 -71.95163118 55.56362302 -74 55 C-73.67 54.34 -73.34 53.68 -73 53 C-72.01 53.66 -71.02 54.32 -70 55 C-69.67 53.68 -69.34 52.36 -69 51 C-62.75976441 49.28278529 -56.68873812 48.78339378 -50.25 48.75 C-49.16924194 48.73646484 -49.16924194 48.73646484 -48.06665039 48.72265625 C-44.63684221 48.74167332 -41.95760218 49.0152249 -38.71484375 50.1796875 C-36.0684516 51.31422136 -36.0684516 51.31422136 -33.98828125 50.0234375 C-33.43527344 49.47945312 -32.88226563 48.93546875 -32.3125 48.375 C-31.73242188 47.80652344 -31.15234375 47.23804688 -30.5546875 46.65234375 C-30.04164063 46.10707031 -29.52859375 45.56179687 -29 45 C-28.319375 44.319375 -27.63875 43.63875 -26.9375 42.9375 C-26.4734375 41.9784375 -26.4734375 41.9784375 -26 41 C-26.29261719 40.30132812 -26.58523437 39.60265625 -26.88671875 38.8828125 C-28.28356611 35.26571302 -28.60821747 31.76723347 -28.875 27.9375 C-28.98328125 26.87692383 -28.98328125 26.87692383 -29.09375 25.79492188 C-29.3414311 22.32412754 -29.31190724 20.43569106 -27.2578125 17.56640625 C-25 16 -25 16 -22.90234375 15.515625 C-20.81708065 15.16985471 -20.81708065 15.16985471 -19.69140625 13.109375 C-19.31886719 12.33078125 -18.94632812 11.5521875 -18.5625 10.75 C-16.12927003 6.05520965 -13.41714168 2.77257057 -9.125 -0.375 C-5.75019879 -1.36758859 -3.37754007 -0.88882633 0 0 Z " fill="#3E508F" transform="translate(162,37)"/>
<path d="M0 0 C3.56290935 5.00733206 2.8167888 12.20568629 2 18 C0.19025834 20.63754148 -0.87839174 20.89825591 -4 22 C-4.99 22 -5.98 22 -7 22 C-6.505 22.99 -6.505 22.99 -6 24 C-3.69 23.34 -1.38 22.68 1 22 C1 23.32 1 24.64 1 26 C0.01 26.495 0.01 26.495 -1 27 C-0.01 27.33 0.98 27.66 2 28 C-0.54656278 30.81940879 -2.1720512 32.56252014 -6 33 C-8.33300933 33.03888349 -10.66709801 33.0448635 -13 33 C-16.74066528 43.68761509 -19.18545441 54.53879742 -21.25390625 65.65234375 C-21.9164376 68.62506293 -22.77169666 71.22182035 -24 74 C-18.44946714 73.25640327 -18.44946714 73.25640327 -13 72 C-13.19851562 72.72445312 -13.39703125 73.44890625 -13.6015625 74.1953125 C-14.44571658 80.13749514 -10.78118822 86.10175984 -7.625 91 C-4.7429033 94.2938248 -3.10429063 94.84009178 1 96 C4 99.2 4 99.2 4 102 C9.28 102.33 14.56 102.66 20 103 C20 103.66 20 104.32 20 105 C5.87152788 106.75043017 -6.2876001 105.55253635 -20 102 C-21.05767578 101.72671875 -22.11535156 101.4534375 -23.20507812 101.171875 C-26.62093514 100.27822566 -30.03007554 99.362753 -33.4375 98.4375 C-35.08238403 97.99845337 -35.08238403 97.99845337 -36.76049805 97.55053711 C-37.78699463 97.2644458 -38.81349121 96.97835449 -39.87109375 96.68359375 C-41.24672485 96.30545532 -41.24672485 96.30545532 -42.65014648 95.91967773 C-45.09619863 94.9623501 -46.31972923 93.98703931 -48 92 C-46.99295004 88.55924598 -45.8231157 85.59319868 -43.9375 82.5625 C-42.26313504 79.80255776 -41.9457987 78.58671512 -41.5 75.1875 C-41.2525 73.6096875 -41.2525 73.6096875 -41 72 C-40.35289063 71.72800781 -39.70578125 71.45601563 -39.0390625 71.17578125 C-36.70330676 70.14509839 -36.70330676 70.14509839 -36.2421875 67.3125 C-36.12101562 66.219375 -35.99984375 65.12625 -35.875 64 C-35.72675781 62.824375 -35.57851562 61.64875 -35.42578125 60.4375 C-35.28527344 59.303125 -35.14476563 58.16875 -35 57 C-33.65402945 49.26929733 -31.79527422 41.63589967 -30 34 C-30.99 34.66 -31.98 35.32 -33 36 C-36.80459643 35.70733874 -39.20460534 34.58832839 -42 32 C-42 31.34 -42 30.68 -42 30 C-38.53846154 27 -38.53846154 27 -36 27 C-34.5992665 24.23605265 -33.26950053 21.45162227 -32 18.625 C-31.64164063 17.84125 -31.28328125 17.0575 -30.9140625 16.25 C-29.85839145 13.86799887 -29.85839145 13.86799887 -29.375 10.625 C-28 8 -28 8 -26.0078125 7.109375 C-24.28338308 6.6044019 -22.54618362 6.14172219 -20.80078125 5.71484375 C-15.47147271 4.35464366 -10.39542716 2.08817756 -5.39453125 -0.18359375 C-3 -1 -3 -1 0 0 Z M-15 95 C-14.67 95.99 -14.34 96.98 -14 98 C-13.34 97.34 -12.68 96.68 -12 96 C-12.99 95.67 -13.98 95.34 -15 95 Z " fill="#3F5193" transform="translate(115,157)"/>
<path d="M0 0 C3.5546875 1.06640625 3.5546875 1.06640625 7.109375 2.1328125 C8.06328125 2.41898438 9.0171875 2.70515625 10 3 C12.72135417 3.81640625 15.44270833 4.6328125 18.1640625 5.44921875 C18.76992188 5.63097656 19.37578125 5.81273437 20 6 C18.45434433 9.38309328 16.50286649 12.23170424 14.25 15.1875 C13.59515625 16.06792969 12.9403125 16.94835937 12.265625 17.85546875 C9.52637585 20.44830975 7.70291514 20.73021618 4 21 C4.66 21.33 5.32 21.66 6 22 C6.185625 22.9590625 6.185625 22.9590625 6.375 23.9375 C6.58125 24.618125 6.7875 25.29875 7 26 C7.66128906 26.27199219 8.32257812 26.54398438 9.00390625 26.82421875 C9.66261719 27.21222656 10.32132813 27.60023438 11 28 C11.50390625 30.1796875 11.50390625 30.1796875 11.5625 32.875 C12.01506083 40.91584815 14.01897692 48.38333984 16.75 55.9375 C17.88931114 59.28271144 18.6181968 61.66246911 17 65 C14.9375 66.625 14.9375 66.625 12 67 C9.85266032 65.96754173 7.99719238 64.74798486 6.0625 63.359375 C4.03441427 61.90873121 4.03441427 61.90873121 1.62084961 61.1328125 C-1.17650359 59.92370967 -2.806863 58.61637173 -4.99609375 56.515625 C-5.71990234 55.82726562 -6.44371094 55.13890625 -7.18945312 54.4296875 C-7.93130859 53.71039063 -8.67316406 52.99109375 -9.4375 52.25 C-10.17548828 51.54617187 -10.91347656 50.84234375 -11.67382812 50.1171875 C-13.79386491 48.08949009 -15.8971855 46.04552546 -18 44 C-18.61472168 43.41879395 -19.22944336 42.83758789 -19.86279297 42.23876953 C-23.97197171 38.29429704 -23.97197171 38.29429704 -24.25 35.375 C-24.12625 34.199375 -24.12625 34.199375 -24 33 C-24.94156364 30.87691013 -24.94156364 30.87691013 -26 29 C-25.33613281 28.34773438 -24.67226563 27.69546875 -23.98828125 27.0234375 C-18.31646704 21.48120174 -18.31646704 21.48120174 -13.125 15.5 C-11 13 -11 13 -9.1015625 12.1953125 C-6.13299428 10.50687035 -5.00320337 8.27452865 -3.25 5.375 C-2.63640625 4.37210938 -2.0228125 3.36921875 -1.390625 2.3359375 C-0.93171875 1.56507813 -0.4728125 0.79421875 0 0 Z " fill="#447AD6" transform="translate(41,197)"/>
<path d="M0 0 C2.60445821 -0.45814561 4.38028353 -0.38400844 6.65478516 1.02539062 C8.58863337 2.55028886 10.45445752 4.13355073 12.3125 5.75 C13.74257685 6.95445753 15.17493061 8.15621605 16.609375 9.35546875 C17.33833984 9.96696777 18.06730469 10.5784668 18.81835938 11.20849609 C22.14801997 13.94272276 25.59573754 16.50584782 29.0625 19.0625 C34.23744634 22.89472361 39.31173584 26.81828156 44.3125 30.875 C51.39607493 36.60404436 58.69305713 42.01382686 66.0546875 47.37890625 C69.48039335 49.87598988 72.87683662 52.40753514 76.2578125 54.96484375 C77.1147168 55.6088916 77.97162109 56.25293945 78.85449219 56.91650391 C80.49822649 58.15296658 82.13715809 59.39584766 83.77050781 60.64599609 C84.51397461 61.2023877 85.25744141 61.7587793 86.0234375 62.33203125 C86.67231934 62.82421143 87.32120117 63.3163916 87.98974609 63.82348633 C91.33945644 65.78392526 93.99537684 66.25115579 97.75 65.3125 C100.10836421 64.22935086 100.10836421 64.22935086 100.8125 62.1875 C101.0721717 59.94688918 101.0721717 59.94688918 100.75 57.5 C101 55 101 55 103.125 52.5625 C106 51 106 51 109.125 51.375 C112.82231858 53.46478876 113.70840304 54.97325653 115 59 C115.11909302 65.43102303 112.23873298 69.46435094 108 74 C102.89072898 77.77112861 98.30220909 78.52518409 92 78 C85.72528912 75.69170404 80.8258568 71.68006798 75.8125 67.375 C74.31129854 66.11161263 72.80868272 64.84990402 71.3046875 63.58984375 C70.20592285 62.66727783 70.20592285 62.66727783 69.08496094 61.72607422 C66.25715866 59.38502479 63.36134828 57.15772893 60.4375 54.9375 C54.86629446 50.70004941 49.43128191 46.3153494 44.01147461 41.88647461 C39.71043346 38.37652425 35.37617703 34.91572068 31 31.5 C25.15316798 26.93557426 19.39182966 22.27216283 13.64453125 17.58325195 C8.81780961 13.65021309 3.94810996 9.77980622 -1 6 C-0.34 5.01 0.32 4.02 1 3 C0.67 2.01 0.34 1.02 0 0 Z " fill="#0E103F" transform="translate(180,185)"/>
<path d="M0 0 C4.19993387 0.67198942 7.88792715 2.09981296 11 5 C12.5016583 7.56687403 13.7803477 10.17946619 15.02490234 12.87866211 C20.8957832 25.45934936 28.85162362 37.57049005 38 48 C38.76699219 48.91007812 39.53398438 49.82015625 40.32421875 50.7578125 C45.93075586 57.21809231 51.87708458 62.27395916 59 67 C55.68431143 68.95927052 52.94564419 69.33403909 49.125 69.5625 C45.78284271 69.77366911 42.82957784 70.0402816 39.5625 70.8125 C37 71 37 71 34.5625 69.625 C32.42608221 67.43647446 30.61704495 65.28170256 28.76171875 62.86328125 C26.41678691 59.82309072 24.05109162 56.80488749 21.640625 53.81640625 C15.56157945 46.22202494 9.83326241 38.55283378 4.75 30.25 C4.29657227 29.51209229 3.84314453 28.77418457 3.37597656 28.01391602 C-0.1779169 22.0562808 -2.28608924 16.93044607 -2.25 9.875 C-2.25515625 8.86179687 -2.2603125 7.84859375 -2.265625 6.8046875 C-2.00227836 4.02405684 -1.42854504 2.36957073 0 0 Z " fill="#080E41" transform="translate(21,98)"/>
<path d="M0 0 C0.78375 0.804375 1.5675 1.60875 2.375 2.4375 C5.15250082 5.14886984 5.87459703 5.38380115 9.5 6 C12.9494478 6.6229772 14.14055438 7.10119915 17.125 9.25 C19 12 19 12 19.125 15.125 C17.72689702 18.69792983 16.44361724 19.44217315 13 21 C12.01 21.33 11.02 21.66 10 22 C9.30062468 23.31647119 8.63270867 24.65022151 8 26 C7.01 26.495 7.01 26.495 6 27 C5.566875 28.155 5.13375 29.31 4.6875 30.5 C4.130625 31.655 3.57375 32.81 3 34 C0.625 34.6875 0.625 34.6875 -2 35 C-2.825 35.70125 -3.65 36.4025 -4.5 37.125 C-7 39 -7 39 -9.8125 38.75 C-10.534375 38.5025 -11.25625 38.255 -12 38 C-12.33 36.68 -12.66 35.36 -13 34 C-15.147206 35.9324854 -16.43887147 37.6994514 -18 40.1875 C-18.66 41.115625 -19.32 42.04375 -20 43 C-23 43 -23 43 -25.625 40.5 C-28.29099306 36.56988865 -28.71102904 32.44315592 -29.0625 27.8125 C-29.12453613 27.11125 -29.18657227 26.41 -29.25048828 25.6875 C-29.41332292 22.26388117 -29.2773497 20.38359503 -27.24609375 17.57421875 C-25 16 -25 16 -22.90234375 15.515625 C-20.81708065 15.16985471 -20.81708065 15.16985471 -19.69140625 13.109375 C-19.31886719 12.33078125 -18.94632813 11.5521875 -18.5625 10.75 C-16.12927003 6.05520965 -13.41714168 2.77257057 -9.125 -0.375 C-5.75019879 -1.36758859 -3.37754007 -0.88882633 0 0 Z " fill="#445695" transform="translate(162,37)"/>
<path d="M0 0 C5.22553572 0 8.07914077 0.56259389 11.875 4.25 C34 28.54411765 34 28.54411765 34 36 C31.25078962 36.98143209 28.50068729 37.9602233 25.75 38.9375 C24.58404297 39.35418945 24.58404297 39.35418945 23.39453125 39.77929688 C22.64042969 40.04677734 21.88632813 40.31425781 21.109375 40.58984375 C20.07248535 40.95903931 20.07248535 40.95903931 19.01464844 41.33569336 C17.02604347 41.99141247 15.03714797 42.51867386 13 43 C12.60731934 42.26475098 12.21463867 41.52950195 11.81005859 40.77197266 C10.32476727 37.9938712 8.83718727 35.21701025 7.34814453 32.44091797 C6.39834561 30.66856363 5.45109348 28.89484521 4.50390625 27.12109375 C1.1841837 20.93592647 -2.21698479 14.85211068 -5.94677734 8.90380859 C-7 7 -7 7 -7 5 C-4.69 4.01 -2.38 3.02 0 2 C0 1.34 0 0.68 0 0 Z " fill="#15349C" transform="translate(81,120)"/>
<path d="M0 0 C-0.26667 7.20008996 -2.58265879 12.30241166 -7 18 C-9.2504231 20.01187826 -11.39595186 21.43757112 -14 23 C-11.74259377 25.33524782 -9.7194239 27.18705073 -7 29 C-7.495 30.485 -7.495 30.485 -8 32 C-8.66 32 -9.32 32 -10 32 C-10 32.66 -10 33.32 -10 34 C-12.57103303 33.48579339 -15.13340425 32.96897576 -17.6875 32.375 C-20.01864219 31.76572985 -20.01864219 31.76572985 -22 33 C-24.06298828 32.74633789 -24.06298828 32.74633789 -26.5703125 32.22265625 C-27.46621094 32.03896484 -28.36210938 31.85527344 -29.28515625 31.66601562 C-30.22230469 31.46685547 -31.15945312 31.26769531 -32.125 31.0625 C-33.54232422 30.76956055 -33.54232422 30.76956055 -34.98828125 30.47070312 C-37.32683666 29.9864568 -39.66391088 29.49598428 -42 29 C-39.99232941 19.66935093 -32.00620739 11.35563018 -24.75 5.5859375 C-22.7339389 4.01949812 -22.7339389 4.01949812 -22 1 C-19.27093526 0.83150207 -16.54176829 0.6651397 -13.8125 0.5 C-13.04357422 0.45230469 -12.27464844 0.40460938 -11.48242188 0.35546875 C-7.648496 0.12510411 -3.84309823 -0.0616128 0 0 Z " fill="#3E5193" transform="translate(86,166)"/>
<path d="M0 0 C0.33 0 0.66 0 1 0 C1.33 2.64 1.66 5.28 2 8 C2.99580078 8.00773438 2.99580078 8.00773438 4.01171875 8.015625 C7.05055081 8.28180007 9.24059749 8.66919417 12 10 C13.75318205 12.94237287 14.75735386 15.83445653 15.84375 19.078125 C17.45493602 23.14963562 19.48595083 24.52419263 23 27 C23.495 28.485 23.495 28.485 24 30 C24.66 29.67 25.32 29.34 26 29 C27.67010679 29.91537613 29.31066766 30.88475423 30.9375 31.875 C39.24018649 36.25443903 47.78576405 35.98072336 57 36 C57 36.66 57 37.32 57 38 C42.87152788 39.75043017 30.7123999 38.55253635 17 35 C15.94232422 34.72671875 14.88464844 34.4534375 13.79492188 34.171875 C10.37906486 33.27822566 6.96992446 32.362753 3.5625 31.4375 C2.46591064 31.14480225 1.36932129 30.85210449 0.23950195 30.55053711 C-1.30024292 30.12140015 -1.30024292 30.12140015 -2.87109375 29.68359375 C-3.78818115 29.43150146 -4.70526855 29.17940918 -5.65014648 28.91967773 C-8.09619863 27.9623501 -9.31972923 26.98703931 -11 25 C-9.99295004 21.55924598 -8.8231157 18.59319868 -6.9375 15.5625 C-5.26313504 12.80255776 -4.9457987 11.58671512 -4.5 8.1875 C-4.335 7.135625 -4.17 6.08375 -4 5 C-1.9375 3.5625 -1.9375 3.5625 0 3 C0 2.01 0 1.02 0 0 Z " fill="#0A0F40" transform="translate(78,224)"/>
<path d="M0 0 C1.9609375 0.234375 1.9609375 0.234375 4.375 0.75 C5.56222656 0.98976562 5.56222656 0.98976562 6.7734375 1.234375 C9.27139079 2.09332034 10.39256615 2.92098461 12 5 C13.06045763 11.96872157 10.2016567 18.46383166 8 25 C13.55053286 24.25640327 13.55053286 24.25640327 19 23 C18.80148438 23.72445312 18.60296875 24.44890625 18.3984375 25.1953125 C17.55428342 31.13749514 21.21881178 37.10175984 24.375 42 C27.2570967 45.2938248 28.89570937 45.84009178 33 47 C35.47730384 49.55988064 36 50.38813866 36 54 C27.37473682 52.92023531 18.5019999 48.87749988 13 42 C9.77164549 37.57254239 7 33.59324812 7 28 C6.28972656 27.87882812 5.57945313 27.75765625 4.84765625 27.6328125 C3.92855469 27.46523437 3.00945312 27.29765625 2.0625 27.125 C1.14597656 26.96257812 0.22945313 26.80015625 -0.71484375 26.6328125 C-1.84599609 26.31957031 -1.84599609 26.31957031 -3 26 C-6.62944521 18.74110959 -3.33626344 8.23878517 -1 1 C-0.67 0.67 -0.34 0.34 0 0 Z " fill="#4F83DD" transform="translate(83,206)"/>
<path d="M0 0 C0.78375 0.804375 1.5675 1.60875 2.375 2.4375 C5.15250082 5.14886984 5.87459703 5.38380115 9.5 6 C12.9494478 6.6229772 14.14055438 7.10119915 17.125 9.25 C19 12 19 12 19.125 15.125 C18 18 18 18 15.625 19.875 C13 21 13 21 10 21 C10 20.34 10 19.68 10 19 C6.82422784 17.08583596 5.00274715 16.86908745 1.375 17.5 C-0.9765625 17.90625 -0.9765625 17.90625 -3 18 C-3.66 17.34 -4.32 16.68 -5 16 C-7.60280568 16.32041397 -7.60280568 16.32041397 -10 17 C-10.33 18.32 -10.66 19.64 -11 21 C-15.51720311 21.36625971 -15.51720311 21.36625971 -17.8125 19.625 C-19 18 -19 18 -19 16 C-19.66 15.67 -20.32 15.34 -21 15 C-17.83786438 8.82374363 -14.82599013 3.8057261 -9.125 -0.375 C-5.75019879 -1.36758859 -3.37754007 -0.88882633 0 0 Z " fill="#2D48A7" transform="translate(162,37)"/>
<path d="M0 0 C3.35808798 4.47745064 3.35808798 4.47745064 4.32421875 7.79296875 C4.5444873 8.50203369 4.76475586 9.21109863 4.99169922 9.94165039 C5.22131348 10.68278076 5.45092773 11.42391113 5.6875 12.1875 C8.0908368 19.53589382 11.13804977 24.77780576 17 30 C17.45994164 23.10087535 16.25936819 17.98640726 13.875 11.50390625 C13 9 13 9 13 7 C13.66 7 14.32 7 15 7 C18.10239494 12.48089773 19.13929065 16.77038828 19.38769531 22.97558594 C19.52080411 31.34930281 19.52080411 31.34930281 23.7890625 38.16015625 C25.93372349 39.83591287 28.07859232 41.12007104 30.4453125 42.50390625 C31.28835937 42.99761719 32.13140625 43.49132812 33 44 C33 44.66 33 45.32 33 46 C31.24609375 46.64453125 31.24609375 46.64453125 29 47 C27.03515625 46.07421875 27.03515625 46.07421875 25.0625 44.6875 C22.91123299 43.1948714 21.08831315 42.03207848 18.61865234 41.13500977 C15.82448202 39.92392475 14.19169992 38.61499273 12.00390625 36.515625 C11.28009766 35.82726562 10.55628906 35.13890625 9.81054688 34.4296875 C9.06869141 33.71039063 8.32683594 32.99109375 7.5625 32.25 C6.45551758 31.19425781 6.45551758 31.19425781 5.32617188 30.1171875 C3.20613509 28.08949009 1.1028145 26.04552546 -1 24 C-1.61472168 23.41879395 -2.22944336 22.83758789 -2.86279297 22.23876953 C-6.97197171 18.29429704 -6.97197171 18.29429704 -7.25 15.375 C-7.1675 14.59125 -7.085 13.8075 -7 13 C-7.66 11.68 -8.32 10.36 -9 9 C-6.03 6.03 -3.06 3.06 0 0 Z " fill="#0B1043" transform="translate(24,217)"/>
<path d="M0 0 C5.25577871 1.64681066 10.0663764 3.5331882 15 6 C17.73572585 6.69907414 17.73572585 6.69907414 20 7 C19.34 7.66 18.68 8.32 18 9 C17.15454225 14.71324478 19.41578836 18.41585956 22.1875 23.1875 C22.62658691 23.96053467 23.06567383 24.73356934 23.51806641 25.5300293 C29.85276954 36.46909261 36.94084757 47.24725757 45 57 C44.505 57.99 44.505 57.99 44 59 C25.00689433 44.99206957 13.53508006 25.88749779 1.984375 5.71875 C1.59991211 5.04779297 1.21544922 4.37683594 0.81933594 3.68554688 C0 2 0 2 0 0 Z " fill="#1A3AA2" transform="translate(32,104)"/>
<path d="M0 0 C0.66 1.98 1.32 3.96 2 6 C4.97 5.01 7.94 4.02 11 3 C11 3.66 11 4.32 11 5 C9.865625 5.4125 8.73125 5.825 7.5625 6.25 C5.53810509 7.23495877 5.53810509 7.23495877 4 9 C3.06317714 13.00278859 2.95487078 16.89968797 3 21 C5.31 21 7.62 21 10 21 C10.33 19.35 10.66 17.7 11 16 C11.99 16 12.98 16 14 16 C13.79375 16.53625 13.5875 17.0725 13.375 17.625 C12.78922589 20.1226217 12.78922589 20.1226217 14 22.875 C15.12494938 26.39046681 14.84435415 28.45371257 14 32 C14.99 32 15.98 32 17 32 C17.12375 32.639375 17.2475 33.27875 17.375 33.9375 C17.58125 34.618125 17.7875 35.29875 18 36 C18.66 36.33 19.32 36.66 20 37 C19.67 35.02 19.34 33.04 19 31 C19.66 31 20.32 31 21 31 C24 36.625 24 36.625 24 40 C20.44849408 39.69558521 19.02861198 39.02406007 16.25 36.6875 C14 34 14 34 13 30 C10.03 30.33 7.06 30.66 4 31 C4 30.01 4 29.02 4 28 C3.278125 27.7525 2.55625 27.505 1.8125 27.25 C-2.57654263 25.29931439 -5.37875681 23.43068652 -7.328125 18.94140625 C-7.63234375 17.82636719 -7.9365625 16.71132812 -8.25 15.5625 C-8.56453125 14.45003906 -8.8790625 13.33757812 -9.203125 12.19140625 C-10.66218798 6.34800205 -10.66218798 6.34800205 -11 4 C-9.56447901 1.88449539 -8.46156011 1.16377939 -6.0625 0.3125 C-4 0 -4 0 0 0 Z " fill="#133397" transform="translate(131,139)"/>
<path d="M0 0 C2.18912335 0.71481579 4.34231162 1.47795625 6.48828125 2.3125 C6.48828125 3.3025 6.48828125 4.2925 6.48828125 5.3125 C5.93140625 5.168125 5.37453125 5.02375 4.80078125 4.875 C-0.44794657 3.59828242 -5.10981352 3.02311222 -10.51171875 3.3125 C-10.84171875 3.6425 -11.17171875 3.9725 -11.51171875 4.3125 C-10.19171875 4.6425 -8.87171875 4.9725 -7.51171875 5.3125 C-7.51171875 5.9725 -7.51171875 6.6325 -7.51171875 7.3125 C-6.83625 7.30089844 -6.16078125 7.28929688 -5.46484375 7.27734375 C-4.12679687 7.26380859 -4.12679687 7.26380859 -2.76171875 7.25 C-1.43914062 7.23259766 -1.43914062 7.23259766 -0.08984375 7.21484375 C2.27016505 7.30423802 4.23326649 7.64337179 6.48828125 8.3125 C6.48828125 9.3025 6.48828125 10.2925 6.48828125 11.3125 C5.49828125 11.6425 4.50828125 11.9725 3.48828125 12.3125 C3.15828125 16.6025 2.82828125 20.8925 2.48828125 25.3125 C0.25938629 25.36678973 -1.96989346 25.40542338 -4.19921875 25.4375 C-5.44058594 25.46070312 -6.68195313 25.48390625 -7.9609375 25.5078125 C-11.51758842 25.31217714 -14.88441919 24.93979956 -17.51171875 22.3125 C-17.61192615 19.84268231 -17.65048913 17.40698776 -17.63671875 14.9375 C-17.64058594 14.25171875 -17.64445313 13.5659375 -17.6484375 12.859375 C-17.63872402 7.86664747 -17.48318957 5.33135964 -13.94921875 1.625 C-9.5371705 -1.85211421 -5.15530517 -1.41109442 0 0 Z " fill="#3A57CB" transform="translate(148.51171875,89.6875)"/>
<path d="M0 0 C2.26979665 -0.10794277 4.54105196 -0.18556176 6.8125 -0.25 C8.07707031 -0.29640625 9.34164062 -0.3428125 10.64453125 -0.390625 C14 0 14 0 15.78515625 1.71875 C16.18605469 2.4715625 16.58695313 3.224375 17 4 C17.42539063 4.73734375 17.85078125 5.4746875 18.2890625 6.234375 C18.72992188 7.06453125 19.17078125 7.8946875 19.625 8.75 C22.69808182 14.47710702 25.88462212 20.13452405 29.10400391 25.78027344 C32 30.89143943 32 30.89143943 32 32 C28.44887155 33.40196394 25.74981588 33.85495802 22 33 C18.11833216 29.34573232 15.19648199 25.23727706 12.23242188 20.82421875 C11.16116099 19.23854891 10.03067501 17.69320631 8.890625 16.15625 C5.11463431 11.0570489 2.29918839 5.91219871 0 0 Z " fill="#F09D92" transform="translate(106,105)"/>
<path d="M0 0 C0.495 1.485 0.495 1.485 1 3 C-3.84820174 8.57767654 -8.50460966 13.76153742 -14.56640625 18.0390625 C-16.78690381 20.67151639 -16.78690381 20.67151639 -16 28 C-21.28 28 -26.56 28 -32 28 C-33.53332291 21.66226532 -34.48446121 15.49850211 -35 9 C-32.29139335 8.94570722 -29.58389099 8.90618789 -26.875 8.875 C-26.11445312 8.85824219 -25.35390625 8.84148437 -24.5703125 8.82421875 C-20.86088243 8.7922409 -18.2171541 8.92388151 -14.66796875 10.16796875 C-12.075812 11.31028952 -12.075812 11.31028952 -10.05859375 10.05859375 C-9.25615234 9.25615234 -9.25615234 9.25615234 -8.4375 8.4375 C-7.85742188 7.87675781 -7.27734375 7.31601563 -6.6796875 6.73828125 C-6.12539062 6.16464844 -5.57109375 5.59101562 -5 5 C-4.48695313 4.49855469 -3.97390625 3.99710937 -3.4453125 3.48046875 C-2.27953222 2.33774063 -1.13695658 1.17140981 0 0 Z " fill="#3B59CC" transform="translate(138,77)"/>
<path d="M0 0 C0.99 0.33 1.98 0.66 3 1 C5.05893621 1.22325814 7.12233653 1.40705759 9.1875 1.5625 C10.27417969 1.64628906 11.36085938 1.73007813 12.48046875 1.81640625 C13.72763672 1.90728516 13.72763672 1.90728516 15 2 C15 2.66 15 3.32 15 4 C18.96 3.01 22.92 2.02 27 1 C27 1.99 27 2.98 27 4 C22.03006806 6.43425238 18.65394631 7.34615998 13 7 C10.57919742 13.9165788 8.70022388 20.87352969 7 28 C6.34 28 5.68 28 5 28 C5 27.34 5 26.68 5 26 C1.04 25.01 -2.92 24.02 -7 23 C-6.47916667 20.29817708 -5.95833333 17.59635417 -5.4375 14.89453125 C-4.91716016 12.05472808 -4.91716016 12.05472808 -5.09375 9.375 C-4.98100646 6.5188303 -4.24446317 5.41169054 -2.5 3.1875 C-2.0359375 2.58292969 -1.571875 1.97835937 -1.09375 1.35546875 C-0.7328125 0.90816406 -0.371875 0.46085938 0 0 Z " fill="#477EDA" transform="translate(89,183)"/>
<path d="M0 0 C2 2 2 2 2 5.5 C1.99049316 6.21542969 1.98098633 6.93085938 1.97119141 7.66796875 C2.03618891 12.92946161 2.25250828 17.92552066 5.75878906 22.08789062 C7.97357775 24.02068764 10.24420651 25.77624368 12.625 27.5 C14.20409231 28.6932048 15.77981728 29.89088376 17.3515625 31.09375 C18.40077881 31.86235352 18.40077881 31.86235352 19.47119141 32.64648438 C19.97569824 33.09314453 20.48020508 33.53980469 21 34 C21 34.66 21 35.32 21 36 C21.66 36.33 22.32 36.66 23 37 C22.34 37.66 21.68 38.32 21 39 C16.90489538 38.78304081 14.35123356 36.01043086 11.3125 33.5 C7.65521466 30.55467816 4.92360324 28.51081301 0.0625 28.625 C-2.08984375 28.609375 -2.08984375 28.609375 -4 28 C-7.84735713 22.72257008 -9.56986734 16.45198992 -10 10 C-9.34 10 -8.68 10 -8 10 C-8.66 9.34 -9.32 8.68 -10 8 C-8.68 7.67 -7.36 7.34 -6 7 C-6.7425 6.071875 -6.7425 6.071875 -7.5 5.125 C-9 3 -9 3 -9 1 C-5.92784561 0.08973203 -3.20319784 -0.25288404 0 0 Z " fill="#2D49A9" transform="translate(159,151)"/>
<path d="M0 0 C4.29 0 8.58 0 13 0 C13.12117187 1.24394531 13.24234375 2.48789063 13.3671875 3.76953125 C14.17527271 11.85770003 15.03420129 19.8414627 16.625 27.8203125 C17.09758931 30.56723784 17.15025083 33.22035966 17 36 C15.35 36 13.7 36 12 36 C-0.875 13.125 -0.875 13.125 0 0 Z " fill="#F39F93" transform="translate(137,115)"/>
<path d="M0 0 C5.75 0.875 5.75 0.875 8 2 C8.30859375 4.08203125 8.30859375 4.08203125 8.4375 6.8125 C9.08388618 15.55572357 11.34581363 23.82096702 14.546875 31.96484375 C15.12242327 34.54984935 14.6536854 36.4603439 14 39 C12.22611914 37.90073597 10.45600316 36.79539498 8.6875 35.6875 C7.20830078 34.76517578 7.20830078 34.76517578 5.69921875 33.82421875 C1.37797804 30.90378545 1.37797804 30.90378545 0 29 C-0.51171875 26.28515625 -0.51171875 26.28515625 -0.6875 23.0625 C-0.75066406 21.91007812 -0.81382813 20.75765625 -0.87890625 19.5703125 C-1.38430251 4.66927434 -1.38430251 4.66927434 0 0 Z " fill="#E7EAF6" transform="translate(44,223)"/>
<path d="M0 0 C0.33 0 0.66 0 1 0 C1.33 2.64 1.66 5.28 2 8 C2.99580078 8.00773438 2.99580078 8.00773438 4.01171875 8.015625 C7.05055081 8.28180007 9.24059749 8.66919417 12 10 C13.75097555 12.93866968 14.75483541 15.82693692 15.83984375 19.06640625 C17.44910419 23.13561362 19.39517802 24.65267406 23 27 C22.01 27.33 21.02 27.66 20 28 C19.01 27.34 18.02 26.68 17 26 C17.99 27.65 18.98 29.3 20 31 C18.43458023 30.7689866 16.8726613 30.5142025 15.3125 30.25 C14.44238281 30.11078125 13.57226562 29.9715625 12.67578125 29.828125 C5.02113752 27.45909658 -0.07102615 19.58187072 -4 13 C-4.69769063 9.90753341 -4.54711479 8.16110768 -4 5 C-2.68 4.34 -1.36 3.68 0 3 C0 2.01 0 1.02 0 0 Z " fill="#2046A7" transform="translate(78,224)"/>
<path d="M0 0 C0.04898438 0.63808594 0.09796875 1.27617188 0.1484375 1.93359375 C0.22320312 2.75988281 0.29796875 3.58617188 0.375 4.4375 C0.47941406 5.67306641 0.47941406 5.67306641 0.5859375 6.93359375 C0.79089844 7.95646484 0.79089844 7.95646484 1 9 C1.66 9.33 2.32 9.66 3 10 C2.34 10 1.68 10 1 10 C1.495 11.1446875 1.495 11.1446875 2 12.3125 C3 15 3 15 3 18 C1.72125 18.0825 0.4425 18.165 -0.875 18.25 C-3.04634555 18.30367785 -3.04634555 18.30367785 -5 19 C-5.3196875 19.639375 -5.639375 20.27875 -5.96875 20.9375 C-7 23 -7 23 -9.1640625 24.046875 C-9.97617188 24.27890625 -10.78828125 24.5109375 -11.625 24.75 C-12.85089844 25.11351562 -12.85089844 25.11351562 -14.1015625 25.484375 C-14.72804688 25.65453125 -15.35453125 25.8246875 -16 26 C-16 26.66 -16 27.32 -16 28 C-24.02770189 27.44636539 -31.33854067 25.34312056 -39 23 C-39 22.34 -39 21.68 -39 21 C-38.31035156 21.13277344 -37.62070313 21.26554687 -36.91015625 21.40234375 C-33.94399798 21.95976993 -30.97405843 22.48643836 -28 23 C-27.1440625 23.15210937 -26.288125 23.30421875 -25.40625 23.4609375 C-20.91349583 24.24835543 -20.91349583 24.24835543 -16.8125 22.6875 C-16.214375 22.130625 -15.61625 21.57375 -15 21 C-13.01985568 20.27648573 -11.02178685 19.59734611 -9 19 C-9.57344937 16.13275314 -9.8614515 15.1385485 -12 13 C-11.34 13 -10.68 13 -10 13 C-10.18415432 10.05908413 -10.18415432 10.05908413 -11 7 C-12.95163118 5.56362302 -12.95163118 5.56362302 -15 5 C-14.67 4.34 -14.34 3.68 -14 3 C-13.01 3.66 -12.02 4.32 -11 5 C-10.67 3.68 -10.34 2.36 -10 1 C-6.61981469 -0.04005702 -3.5219721 -0.08004482 0 0 Z " fill="#1B3CB0" transform="translate(103,87)"/>
<path d="M0 0 C2.69912062 -0.51361907 4.44428546 -0.34958445 6.78369141 1.12207031 C8.84199072 2.73882027 10.83343622 4.41216963 12.8125 6.125 C14.17189386 7.27495615 15.53257022 8.42339795 16.89453125 9.5703125 C17.56371582 10.14346191 18.23290039 10.71661133 18.92236328 11.30712891 C21.03655103 13.029782 23.23369041 14.54993 25.48046875 16.09375 C28.89249475 18.61835636 28.89249475 18.61835636 29.78125 21.7734375 C29.64203125 23.06121094 29.64203125 23.06121094 29.5 24.375 C29.4278125 25.24898437 29.355625 26.12296875 29.28125 27.0234375 C29.14203125 28.00183594 29.14203125 28.00183594 29 29 C24.31283693 26.42024358 20.35466184 23.14561337 16.25 19.75 C14.82870821 18.58392419 13.40683655 17.41855481 11.984375 16.25390625 C11.30181641 15.69461426 10.61925781 15.13532227 9.91601562 14.55908203 C6.32868206 11.64003105 2.67508218 8.80735445 -1 6 C-0.34 5.01 0.32 4.02 1 3 C0.67 2.01 0.34 1.02 0 0 Z " fill="#0E103B" transform="translate(180,185)"/>
<path d="M0 0 C3.3 0.33 6.6 0.66 10 1 C10 1.66 10 2.32 10 3 C10.43441406 3.4228125 10.86882812 3.845625 11.31640625 4.28125 C14.13483094 7.15852811 15.60257917 10.83551708 17.40234375 14.40625 C19.03336299 17.05416387 20.36665287 18.39132221 23 20 C24.0209375 20.2165625 24.0209375 20.2165625 25.0625 20.4375 C27.79155687 21.22980683 28.58618449 22.59651364 30 25 C30 25.99 30 26.98 30 28 C19.54219269 26.69082591 11.31476818 21.45691269 4.875 13.3125 C2.42999661 8.99299402 1.29454747 4.78982565 0 0 Z " fill="#E5E9F4" transform="translate(89,232)"/>
<path d="M0 0 C0.81015958 9.4698653 -0.99593557 15.91219086 -6.890625 23.40234375 C-8.5482742 25.31942179 -10.23640979 27.18050347 -12 29 C-15.78508673 28.34090529 -18.13456775 27.65317801 -21 25 C-21 24.34 -21 23.68 -21 23 C-17.53846154 20 -17.53846154 20 -15 20 C-12.28602753 14.64475076 -9.68358335 9.25180396 -7.9375 3.5 C-7.628125 2.675 -7.31875 1.85 -7 1 C-4 0 -4 0 0 0 Z " fill="#E38F8C" transform="translate(94,164)"/>
<path d="M0 0 C0.2475 0.9075 0.495 1.815 0.75 2.75 C2.03981342 6.10351489 3.31971042 7.67708236 6 10 C5.34 12.31 4.68 14.62 4 17 C3.443125 16.855625 2.88625 16.71125 2.3125 16.5625 C-0.11384195 15.97230872 -2.54906345 15.476571 -5 15 C-5.99 17.475 -5.99 17.475 -7 20 C-11.51720311 20.36625971 -11.51720311 20.36625971 -13.8125 18.625 C-15 17 -15 17 -15 15 C-15.66 14.67 -16.32 14.34 -17 14 C-16.23570339 12.55901389 -15.46327445 11.12233946 -14.6875 9.6875 C-14.25824219 8.88699219 -13.82898438 8.08648437 -13.38671875 7.26171875 C-10.06749455 1.84811083 -6.37136718 0 0 0 Z " fill="#15359C" transform="translate(158,38)"/>
<path d="M0 0 C1.8125 0.8125 1.8125 0.8125 4.8125 2.8125 C4.2877803 6.69542578 3.51517485 8.10982515 0.8125 10.8125 C0.131875 12.606875 0.131875 12.606875 -0.5625 14.4375 C-1.366875 16.108125 -1.366875 16.108125 -2.1875 17.8125 C-4.6875 18.5625 -4.6875 18.5625 -7.1875 18.8125 C-7.703125 19.34875 -8.21875 19.885 -8.75 20.4375 C-9.4615625 21.118125 -9.4615625 21.118125 -10.1875 21.8125 C-13.16147616 21.54213853 -14.04196026 20.95803974 -16.1875 18.8125 C-16.75 15.625 -16.75 15.625 -16.1875 11.8125 C-14.55122726 9.73376575 -12.79809125 8.04245631 -10.81640625 6.29296875 C-9.07577578 4.88997274 -9.07577578 4.88997274 -8.1875 2.8125 C-3.0625 -0.2625 -3.0625 -0.2625 0 0 Z " fill="#EE918B" transform="translate(167.1875,53.1875)"/>
<path d="M0 0 C2.875 2.0625 2.875 2.0625 5 5 C5.63664952 9.03211364 5.69818231 11.01737304 3.3125 14.375 C0.66289173 16.23688689 -0.75713747 16.92278899 -4 17 C-7.93614016 15.45641562 -9.63226576 14.55160136 -12 11 C-11.92390846 6.81496505 -11.63863176 4.71161825 -8.8125 1.5625 C-5.43724821 -0.31263988 -3.7992366 -0.71235686 0 0 Z " fill="#F2900A" transform="translate(235,241)"/>
<path d="M0 0 C3.59830561 1.1994352 3.94564901 2.10046488 5.875 5.25 C8.2792757 9.01870217 10.70451936 11.99529706 14 15 C13.34 16.32 12.68 17.64 12 19 C1.605 17.02 1.605 17.02 -9 15 C-8.0025835 11.01033401 -6.86395227 9.09199936 -4.5 5.8125 C-3.8709375 4.93207031 -3.241875 4.05164063 -2.59375 3.14453125 C-1 1 -1 1 0 0 Z " fill="#447BD5" transform="translate(53,180)"/>
<path d="M0 0 C1.24202979 2.48405957 1.09908841 4.16897663 1.0625 6.9375 C1.05347656 7.81277344 1.04445313 8.68804687 1.03515625 9.58984375 C1.02355469 10.38519531 1.01195312 11.18054688 1 12 C1 12.99 1 13.98 1 15 C0.67 15 0.34 15 0 15 C0.28875 15.92941406 0.5775 16.85882813 0.875 17.81640625 C1.431875 19.67072266 1.431875 19.67072266 2 21.5625 C2.37125 22.78066406 2.7425 23.99882812 3.125 25.25390625 C3.99514943 28.97923349 4.15688404 32.19065949 4 36 C-0.73515307 31.92250708 -2.76108845 27.77497027 -5 22 C-5.38671875 21.05898437 -5.7734375 20.11796875 -6.171875 19.1484375 C-9.54280355 10.58258481 -9.54280355 10.58258481 -8 6 C-5.78905184 3.44741845 -3.02134137 1.51067068 0 0 Z " fill="#16389A" transform="translate(34,208)"/>
<path d="M0 0 C0.66 0.33 1.32 0.66 2 1 C1.690625 1.804375 1.690625 1.804375 1.375 2.625 C0.78922589 5.1226217 0.78922589 5.1226217 2 7.875 C3.12494938 11.39046681 2.84435415 13.45371257 2 17 C2.99 17 3.98 17 5 17 C5.12375 17.639375 5.2475 18.27875 5.375 18.9375 C5.58125 19.618125 5.7875 20.29875 6 21 C6.66 21.33 7.32 21.66 8 22 C7.67 20.02 7.34 18.04 7 16 C7.66 16 8.32 16 9 16 C12 21.625 12 21.625 12 25 C8.44849408 24.69558521 7.02861198 24.02406007 4.25 21.6875 C2 19 2 19 1 15 C-3.455 15.495 -3.455 15.495 -8 16 C-8 15.01 -8 14.02 -8 13 C-9.0828125 12.62875 -9.0828125 12.62875 -10.1875 12.25 C-13.27606582 10.87730408 -15.51011418 9.27646704 -18 7 C-18 6.34 -18 5.68 -18 5 C-12.72 5.33 -7.44 5.66 -2 6 C-1.67 4.35 -1.34 2.7 -1 1 C-0.67 0.67 -0.34 0.34 0 0 Z " fill="#213E9E" transform="translate(143,154)"/>
<path d="M0 0 C3.56290935 5.00733206 2.8167888 12.20568629 2 18 C0.19025834 20.63754148 -0.87839174 20.89825591 -4 22 C-4.99 22 -5.98 22 -7 22 C-7.02578125 21.21496094 -7.0515625 20.42992187 -7.078125 19.62109375 C-7.4386702 12.94281332 -8.12963374 8.49342308 -12 3 C-10.5682384 2.30062798 -9.12932968 1.61587282 -7.6875 0.9375 C-6.48673828 0.36322266 -6.48673828 0.36322266 -5.26171875 -0.22265625 C-3 -1 -3 -1 0 0 Z " fill="#E48D8C" transform="translate(115,157)"/>
<path d="M0 0 C8.66192225 6.01850184 15.75738895 13.37566792 22.58984375 21.37109375 C23.67629098 22.62607573 24.82625655 23.82625655 26 25 C26 25.99 26 26.98 26 28 C22.28101946 26.70721345 19.83887445 25.23600986 17.00390625 22.515625 C15.91819336 21.48308594 15.91819336 21.48308594 14.81054688 20.4296875 C14.06869141 19.71039063 13.32683594 18.99109375 12.5625 18.25 C11.45551758 17.19425781 11.45551758 17.19425781 10.32617188 16.1171875 C8.88083844 14.73480637 7.44135431 13.34627901 6.00830078 11.95117188 C4.72666085 10.70598997 3.43432378 9.47166166 2.12841797 8.25195312 C0.69605456 6.89148116 -0.66050737 5.45200152 -2 4 C-2 3.01 -2 2.02 -2 1 C-1.34 0.67 -0.68 0.34 0 0 Z " fill="#1D47AD" transform="translate(19,231)"/>
<path d="M0 0 C2.73638153 2.62360225 4.99487129 5.28907811 7.1875 8.375 C10.78255661 13.10328098 14.8935525 16.04729226 20 19 C19.67 19.99 19.34 20.98 19 22 C18.34 22 17.68 22 17 22 C17 22.66 17 23.32 17 24 C9.19757365 22.69959561 5.74926369 19.09098392 1 13 C-0.38837762 10.92106807 -1.69705359 8.82279555 -2.95703125 6.6640625 C-4.01890202 4.83201352 -4.01890202 4.83201352 -6 3 C-5.01 2.34 -4.02 1.68 -3 1 C-2.64808594 1.65226563 -2.29617187 2.30453125 -1.93359375 2.9765625 C1.40168612 8.88079161 4.59958042 12.89568112 10 17 C9.36191406 16.19175781 8.72382812 15.38351563 8.06640625 14.55078125 C7.23130339 13.47171576 6.39669385 12.39226837 5.5625 11.3125 C5.14162109 10.78205078 4.72074219 10.25160156 4.28710938 9.70507812 C1.83991948 6.5139425 0.41066539 4.02452077 0 0 Z " fill="#080E3F" transform="translate(59,176)"/>
<path d="M0 0 C5.4753586 1.98044886 9.85301447 4.91299153 14 9 C15 12.0625 15 12.0625 15 15 C15.185625 16.11375 15.37125 17.2275 15.5625 18.375 C15.706875 19.24125 15.85125 20.1075 16 21 C1.84468728 12.67484306 1.84468728 12.67484306 0.1328125 7.25390625 C-0.0978975 4.78950403 -0.17189427 2.46718829 0 0 Z " fill="#0D103F" transform="translate(208,205)"/>
<path d="M0 0 C0.39832031 0.73605469 0.79664062 1.47210938 1.20703125 2.23046875 C1.73683594 3.20628906 2.26664063 4.18210938 2.8125 5.1875 C3.33457031 6.15042969 3.85664062 7.11335937 4.39453125 8.10546875 C5.87463866 10.77398357 7.41337509 13.39374227 9 16 C8.01 16.66 7.02 17.32 6 18 C-1.48291572 9.738041 -1.48291572 9.738041 -4 5 C-2.62018779 9.41539907 -0.17889697 12.56490699 2.66015625 16.1328125 C4 18 4 18 5 21 C-0.84988823 18.4351462 -5.35663045 12.75321608 -8 7 C-7.84853383 4.4250751 -7.22770432 3.30360576 -5.6875 1.25 C-4 0 -4 0 0 0 Z " fill="#437BD8" transform="translate(64,172)"/>
<path d="M0 0 C0.99 0.33 1.98 0.66 3 1 C2.67 1.33 2.34 1.66 2 2 C1.91368126 3.34267413 1.89293527 4.68974322 1.90234375 6.03515625 C1.90556641 6.84404297 1.90878906 7.65292969 1.91210938 8.48632812 C1.92048828 9.33646484 1.92886719 10.18660156 1.9375 11.0625 C1.94201172 11.91650391 1.94652344 12.77050781 1.95117188 13.65039062 C1.96299627 15.76695663 1.98093231 17.88348685 2 20 C5.465 19.505 5.465 19.505 9 19 C7.25 24.75 7.25 24.75 5 27 C2 27 2 27 -0.625 24.5 C-3.29099306 20.56988865 -3.71102904 16.44315592 -4.0625 11.8125 C-4.12453613 11.11125 -4.18657227 10.41 -4.25048828 9.6875 C-4.42248983 6.07114578 -4.30052329 4.3731644 -1.99609375 1.51171875 C-1.33738281 1.01285156 -0.67867187 0.51398437 0 0 Z " fill="#0B0E40" transform="translate(137,53)"/>
<path d="M0 0 C1.32 0 2.64 0 4 0 C5.625 2.375 5.625 2.375 7 5 C7.66 5.66 8.32 6.32 9 7 C7.68 7.33 6.36 7.66 5 8 C5 8.99 5 9.98 5 11 C4.67 11.33 4.34 11.66 4 12 C4.09033353 13.46282033 4.24703491 14.92182192 4.4375 16.375 C4.77166007 18.9721428 5 21.37411693 5 24 C4.01 23.67 3.02 23.34 2 23 C2 21.68 2 20.36 2 19 C1.01 19 0.02 19 -1 19 C-1.06058594 18.22914063 -1.12117187 17.45828125 -1.18359375 16.6640625 C-1.26738281 15.66117188 -1.35117188 14.65828125 -1.4375 13.625 C-1.51871094 12.62726563 -1.59992188 11.62953125 -1.68359375 10.6015625 C-1.84965626 8.02072387 -1.84965626 8.02072387 -3 6 C-2.01 6 -1.02 6 0 6 C0 4.02 0 2.04 0 0 Z " fill="#213EA0" transform="translate(146,152)"/>
<path d="M0 0 C4.67680112 0.91656865 7.5337556 3.4579881 11.1875 6.375 C11.82880859 6.87 12.47011719 7.365 13.13085938 7.875 C13.74123047 8.35710937 14.35160156 8.83921875 14.98046875 9.3359375 C15.81421021 9.99408447 15.81421021 9.99408447 16.66479492 10.66552734 C18 12 18 12 19 15 C19.66 15.33 20.32 15.66 21 16 C20.34 16.66 19.68 17.32 19 18 C13.36886457 17.46313327 8.11608473 12.49921984 4.59765625 8.34375 C2.814918 5.70664285 1.33313609 2.88846153 0 0 Z " fill="#3965B0" transform="translate(161,172)"/>
<path d="M0 0 C1.75082882 3.50165763 1.03314834 7.72656398 0.9609375 11.58984375 C0.83579913 15.42003413 0.83579913 15.42003413 2 19 C0.72125 19.061875 -0.5575 19.12375 -1.875 19.1875 C-2.95394531 19.23970703 -2.95394531 19.23970703 -4.0546875 19.29296875 C-4.69664063 19.19628906 -5.33859375 19.09960938 -6 19 C-8.57482114 15.13776829 -8.27040469 13.00799879 -7.7578125 8.51953125 C-6.49733904 4.32878187 -3.57700132 2.29749954 0 0 Z " fill="#1637A6" transform="translate(131,95)"/>
<path d="M0 0 C4.59733101 5.8387468 13 17.41542163 13 25 C8.10728908 23.51736033 3.690444 21.44539669 1 17 C-0.16805063 11.43112626 -0.04415581 5.66455919 0 0 Z " fill="#4B80D9" transform="translate(43,235)"/>
<path d="M0 0 C-0.33 3.96 -0.66 7.92 -1 12 C-9.875 11.125 -9.875 11.125 -11 10 C-11.14115161 7.32941149 -11.04247107 4.67567762 -11 2 C-9.54494642 1.47007308 -8.08581873 0.9513211 -6.625 0.4375 C-5.81289062 0.14746094 -5.00078125 -0.14257812 -4.1640625 -0.44140625 C-2 -1 -2 -1 0 0 Z " fill="#15349A" transform="translate(135,148)"/>
<path d="M0 0 C1.07701172 0.63228516 1.07701172 0.63228516 2.17578125 1.27734375 C12.10559859 6.53285106 20.93560386 6.97663274 32 7 C32 7.66 32 8.32 32 9 C24.64206267 9.91160286 17.41017023 10.11459026 10 10 C9.67 9.01 9.34 8.02 9 7 C7.9171875 6.814375 7.9171875 6.814375 6.8125 6.625 C4.04278106 6.0095069 1.6029646 5.11555626 -1 4 C-0.67 2.68 -0.34 1.36 0 0 Z " fill="#1F49AA" transform="translate(103,253)"/>
<path d="M0 0 C5.4185766 -0.22577402 9.77487721 0.53329887 15 2 C15 4.64 15 7.28 15 10 C13.35 10.33 11.7 10.66 10 11 C10 10.01 10 9.02 10 8 C9.278125 7.7525 8.55625 7.505 7.8125 7.25 C4.72393418 5.87730408 2.48988582 4.27646704 0 2 C0 1.34 0 0.68 0 0 Z " fill="#090C3E" transform="translate(125,159)"/>
<path d="M0 0 C0.495 1.485 0.495 1.485 1 3 C-2.3 4.32 -5.6 5.64 -9 7 C-9 7.66 -9 8.32 -9 9 C-17.02770189 8.44636539 -24.33854067 6.34312056 -32 4 C-32 3.34 -32 2.68 -32 2 C-31.31035156 2.13277344 -30.62070313 2.26554687 -29.91015625 2.40234375 C-26.94399798 2.95976993 -23.97405843 3.48643836 -21 4 C-20.1440625 4.15210937 -19.288125 4.30421875 -18.40625 4.4609375 C-13.95854189 5.26717321 -13.95854189 5.26717321 -9.9375 3.6875 C-9.298125 3.130625 -8.65875 2.57375 -8 2 C-5.35603066 1.1477691 -2.72039837 0.58941965 0 0 Z " fill="#2849B2" transform="translate(96,106)"/>
<path d="M0 0 C1.87109375 0.3046875 1.87109375 0.3046875 4 1 C8.58747978 7.95072694 9.61394845 15.93570009 11 24 C6.28649618 19.97706062 4.56406592 16.15015494 2.6875 10.3125 C2.42388672 9.54099609 2.16027344 8.76949219 1.88867188 7.97460938 C0 2.35765016 0 2.35765016 0 0 Z " fill="#437BDA" transform="translate(25,217)"/>
<path d="M0 0 C2.375 0.4375 2.375 0.4375 5 2 C5.81614882 4.22299099 6.20793178 6.37239612 6.59765625 8.70703125 C6.95183958 11.15403402 6.95183958 11.15403402 8.125 13.9375 C9.37012994 18.29545479 9.16013856 22.49832718 9 27 C7.06640625 25.8828125 7.06640625 25.8828125 5 24 C4.27734375 21.1796875 4.27734375 21.1796875 3.9375 17.875 C3.31569315 12.86133219 2.35630717 8.43093843 0.5859375 3.70703125 C0 2 0 2 0 0 Z " fill="#3E73D2" transform="translate(33,221)"/>
<path d="M0 0 C2.95867918 0.14046255 5.91682264 0.28712224 8.875 0.4375 C9.71675781 0.47681641 10.55851562 0.51613281 11.42578125 0.55664062 C12.23144531 0.59853516 13.03710938 0.64042969 13.8671875 0.68359375 C14.98262939 0.73858032 14.98262939 0.73858032 16.12060547 0.79467773 C18 1 18 1 20 2 C20 2.99 20 3.98 20 5 C19.43716309 4.9592334 18.87432617 4.9184668 18.29443359 4.87646484 C6.88872866 4.08850194 -3.73071623 3.7082633 -15 6 C-14 4 -14 4 -10.875 2.875 C-7.09941262 2.02244801 -3.85361088 1.84270976 0 2 C0 1.34 0 0.68 0 0 Z " fill="#2749B1" transform="translate(104,78)"/>
<path d="M0 0 C0.33 2.31 0.66 4.62 1 7 C0.01 7.495 0.01 7.495 -1 8 C-0.34 8.33 0.32 8.66 1 9 C0.67 10.32 0.34 11.64 0 13 C-1.8125 13.6875 -1.8125 13.6875 -4 14 C-5.75 13 -5.75 13 -7 11 C-7.51451424 6.95738812 -7.65485184 4.88066282 -5.1875 1.5625 C-3 0 -3 0 0 0 Z " fill="#EEA192" transform="translate(158,61)"/>
<path d="M0 0 C0.50789062 0.3609375 1.01578125 0.721875 1.5390625 1.09375 C5.81805449 3.9784637 8.66201712 5.74483482 14 5 C14.99 4.67 15.98 4.34 17 4 C16.9375 5.8125 16.9375 5.8125 16 8 C13.39304014 9.61631511 11.92398483 10.49825112 9 11 C4.54329999 9.68490819 2.59393654 8.89090481 0 5 C-0.125 2.3125 -0.125 2.3125 0 0 Z " fill="#5E4315" transform="translate(223,247)"/>
<path d="M0 0 C2.27734375 0.1875 2.27734375 0.1875 5 1 C6.87890625 3.25 6.87890625 3.25 8.5625 6 C10.61491535 9.68990231 10.61491535 9.68990231 14.07421875 11.68359375 C15.02748047 11.84021484 15.02748047 11.84021484 16 12 C18.25 14.0625 18.25 14.0625 20 16 C17.83125748 15.49396008 16.00032373 15.00016187 14 14 C14.99 15.65 15.98 17.3 17 19 C13.62917956 18.78101399 12.83250909 17.8126642 10.52734375 15.234375 C9.65354834 14.08080595 8.79057208 12.91897733 7.9375 11.75 C7.50373047 11.17636719 7.06996094 10.60273438 6.62304688 10.01171875 C4.20644795 6.78223038 2.00892259 3.50408793 0 0 Z " fill="#4276D3" transform="translate(81,236)"/>
<path d="M0 0 C-2.59099637 2.86860312 -4.19011453 4.34020712 -8 5 C-9.98291016 5.03759766 -9.98291016 5.03759766 -12.0390625 4.9140625 C-12.78414062 4.87023437 -13.52921875 4.82640625 -14.296875 4.78125 C-15.06515625 4.7296875 -15.8334375 4.678125 -16.625 4.625 C-17.40101562 4.58117187 -18.17703125 4.53734375 -18.9765625 4.4921875 C-24.73549107 4.13225446 -24.73549107 4.13225446 -27 3 C-26.67 2.34 -26.34 1.68 -26 1 C-25.01 1.02320313 -24.02 1.04640625 -23 1.0703125 C-16.05796327 1.18191233 -6.00235707 -2.00078569 0 0 Z " fill="#0F1B50" transform="translate(117,185)"/>
<path d="M0 0 C2 0.75 2 0.75 5 2.75 C4.50168276 6.43754757 3.89932357 8.35490662 1 10.75 C-1.475 9.76 -1.475 9.76 -4 8.75 C-4.33 6.44 -4.66 4.13 -5 1.75 C-2 -0.25 -2 -0.25 0 0 Z " fill="#E5938E" transform="translate(167,53.25)"/>
<path d="M0 0 C3.26664798 0.26588995 4.16949518 1.1745114 6.5078125 3.58203125 C7.38993074 4.65090425 8.26207029 5.72807647 9.125 6.8125 C9.78822266 7.61397461 9.78822266 7.61397461 10.46484375 8.43164062 C12.67999362 11.15205882 14.60800356 13.77025544 16 17 C13.30338002 16.9161928 11.54403189 16.51349104 9.55615234 14.63720703 C8.0320505 12.82275122 6.59987773 10.96515572 5.1875 9.0625 C4.68541016 8.41603516 4.18332031 7.76957031 3.66601562 7.10351562 C0 2.30028699 0 2.30028699 0 0 Z " fill="#4579D8" transform="translate(74,235)"/>
<path d="M0 0 C0.33 0.99 0.66 1.98 1 3 C-0.39080108 4.58775549 -1.78788404 6.17000939 -3.1875 7.75 C-3.96480469 8.63171875 -4.74210938 9.5134375 -5.54296875 10.421875 C-7.90449533 12.89978842 -10.19224944 15.04196342 -13 17 C-15.8125 16.75 -15.8125 16.75 -18 16 C-16.71977351 13.43954701 -15.53255486 13.25495116 -13 12 C-8.36575656 8.34235657 -4.10664976 4.23498256 0 0 Z " fill="#254CB1" transform="translate(138,77)"/>
<path d="M0 0 C-0.33 0.99 -0.66 1.98 -1 3 C-8.61118491 6.2563983 -16.95067684 6.74358303 -25 5 C-25.66 4.34 -26.32 3.68 -27 3 C-21.72 3 -16.44 3 -11 3 C-10.67 2.34 -10.34 1.68 -10 1 C-8.22265625 0.33203125 -8.22265625 0.33203125 -6.0625 -0.1875 C-5.35222656 -0.36667969 -4.64195313 -0.54585937 -3.91015625 -0.73046875 C-2 -1 -2 -1 0 0 Z " fill="#0A123E" transform="translate(117,180)"/>
<path d="M0 0 C3.06842927 0.83988111 6.03579373 1.84725312 9 3 C9 3.99 9 4.98 9 6 C8.443125 5.855625 7.88625 5.71125 7.3125 5.5625 C-1.96716793 3.26584675 -1.96716793 3.26584675 -11 5.5 C-11.66 5.995 -12.32 6.49 -13 7 C-13.33 6.34 -13.66 5.68 -14 5 C-9.56302654 0.56302654 -6.40964837 -1.10869593 0 0 Z " fill="#274DB3" transform="translate(146,89)"/>
<path d="M0 0 C0.50789063 0.38671875 1.01578125 0.7734375 1.5390625 1.171875 C4.8008845 3.63962049 8.04047774 6.06503857 11.5 8.25 C12.325 8.8275 13.15 9.405 14 10 C14 10.66 14 11.32 14 12 C12.25390625 12.66796875 12.25390625 12.66796875 10 13 C7.96484375 11.92578125 7.96484375 11.92578125 5.9375 10.3125 C5.26589844 9.79300781 4.59429687 9.27351563 3.90234375 8.73828125 C1.92873383 6.93487999 0.37997578 5.29392695 -1 3 C-0.67 2.01 -0.34 1.02 0 0 Z " fill="#0A1045" transform="translate(43,251)"/>
<path d="M0 0 C4.95 0 9.9 0 15 0 C14.67 1.32 14.34 2.64 14 4 C8.72 4 3.44 4 -2 4 C-1.34 2.68 -0.68 1.36 0 0 Z " fill="#4374CE" transform="translate(92,179)"/>
<path d="M0 0 C0.66 0 1.32 0 2 0 C6.43905633 9.29104813 7.14939357 16.74164167 7 27 C6.67 26.34 6.34 25.68 6 25 C5.34 24.67 4.68 24.34 4 24 C4.04640625 23.41734375 4.0928125 22.8346875 4.140625 22.234375 C4.4283201 15.6995862 3.1446095 10.5840867 0.875 4.46875 C0 2 0 2 0 0 Z " fill="#123292" transform="translate(37,224)"/>
<path d="M0 0 C1 3 1 3 1.34375 5.3984375 C2.13236993 8.52475222 3.4377872 10.16555769 5.5 12.625 C7.64599498 15.20195299 8.93099312 16.79297936 10 20 C4.15011177 17.4351462 -0.35663045 11.75321608 -3 6 C-2.73972043 2.96340505 -2.1899142 2.1899142 0 0 Z " fill="#3C6ECE" transform="translate(59,173)"/>
<path d="M0 0 C0 0.66 0 1.32 0 2 C-5.60236281 4.67149708 -10.93139507 6.67594074 -17 8 C-17.33 9.98 -17.66 11.96 -18 14 C-19.76462683 10.91190305 -20 9.76687864 -20 6 C-18.86820312 5.65066406 -17.73640625 5.30132812 -16.5703125 4.94140625 C-15.08851369 4.48186105 -13.60674438 4.02222069 -12.125 3.5625 C-11.37863281 3.33240234 -10.63226563 3.10230469 -9.86328125 2.86523438 C-0.64470109 0 -0.64470109 0 0 0 Z " fill="#0B1141" transform="translate(142,142)"/>
<path d="M0 0 C3.15173867 1.35158831 4.81408764 2.69121836 6.796875 5.4765625 C7.28027344 6.146875 7.76367188 6.8171875 8.26171875 7.5078125 C8.75285156 8.20648438 9.24398437 8.90515625 9.75 9.625 C10.25660156 10.33140625 10.76320313 11.0378125 11.28515625 11.765625 C12.53096207 13.505052 13.7664963 15.25182752 15 17 C14.01 17.33 13.02 17.66 12 18 C11.01 17.34 10.02 16.68 9 16 C9 15.34 9 14.68 9 14 C8.11269533 12.67335029 7.16555387 11.38623735 6.1875 10.125 C5.66542969 9.44695312 5.14335938 8.76890625 4.60546875 8.0703125 C3.51330776 6.66192972 2.41132963 5.26111719 1.30078125 3.8671875 C0 2 0 2 0 0 Z " fill="#113495" transform="translate(79,236)"/>
<path d="M0 0 C7.84015288 3.44966727 13.20179277 11.1661897 18 18 C11.23491005 14.86170882 6.63338481 9.69244419 2 4 C1.34 3.67 0.68 3.34 0 3 C0 2.01 0 1.02 0 0 Z " fill="#7386E1" transform="translate(24,236)"/>
<path d="M0 0 C0.33 0.66 0.66 1.32 1 2 C0.67 2.66 0.34 3.32 0 4 C0.99 4 1.98 4 3 4 C3.12375 4.639375 3.2475 5.27875 3.375 5.9375 C3.684375 6.9584375 3.684375 6.9584375 4 8 C4.66 8.33 5.32 8.66 6 9 C5.67 7.02 5.34 5.04 5 3 C5.66 3 6.32 3 7 3 C10 8.625 10 8.625 10 12 C6.44849408 11.69558521 5.02861198 11.02406007 2.25 8.6875 C0.1134337 6.13549025 -0.33814843 5.08864065 -1 2 C-1.99 1.67 -2.98 1.34 -4 1 C-2.68 0.67 -1.36 0.34 0 0 Z " fill="#162D82" transform="translate(145,167)"/>
<path d="M0 0 C2.13697894 2.594903 4.09122369 5.14595791 5.875 8 C8.28622171 11.40407771 10.71490086 13.4615143 14 16 C13.01 16.66 12.02 17.32 11 18 C6.31074685 13.66639246 2.98574744 9.63974516 0 4 C-0.66 3.34 -1.32 2.68 -2 2 C-1.34 1.34 -0.68 0.68 0 0 Z " fill="#0A144E" transform="translate(55,177)"/>
<path d="M0 0 C2.79201446 2.69383373 5.22316648 5.46955568 7.5625 8.5625 C9.57790593 11.22427219 11.57942555 13.69714346 14 16 C12.68 16.33 11.36 16.66 10 17 C8.50958493 15.11214091 7.03294217 13.21581892 5.5625 11.3125 C4.93118164 10.51682617 4.93118164 10.51682617 4.28710938 9.70507812 C1.83991948 6.5139425 0.41066539 4.02452077 0 0 Z " fill="#0A154C" transform="translate(59,176)"/>
<path d="M0 0 C0.99 0 1.98 0 3 0 C3.83887056 2.43572059 4.67126529 4.87333217 5.5 7.3125 C5.73847656 8.00279297 5.97695312 8.69308594 6.22265625 9.40429688 C7.23208263 12.38931489 8 14.82658914 8 18 C7.01 17.67 6.02 17.34 5 17 C5 15.68 5 14.36 5 13 C4.01 13 3.02 13 2 13 C1.93941406 12.22914063 1.87882813 11.45828125 1.81640625 10.6640625 C1.73261719 9.66117188 1.64882812 8.65828125 1.5625 7.625 C1.48128906 6.62726563 1.40007812 5.62953125 1.31640625 4.6015625 C1.15034374 2.02072387 1.15034374 2.02072387 0 0 Z " fill="#2642A2" transform="translate(143,158)"/>
<path d="M0 0 C4.95 2.31 9.9 4.62 15 7 C15 7.33 15 7.66 15 8 C9.04492601 7.6083965 4.37180176 6.62875405 -1 4 C-0.67 2.68 -0.34 1.36 0 0 Z " fill="#4E80D7" transform="translate(103,253)"/>
<path d="M0 0 C2.69600373 0.9885347 3.80558649 1.65977636 5.25 4.1875 C6.14461507 7.54230653 6.13556977 10.54297098 6 14 C5.34 14 4.68 14 4 14 C3.32739649 12.23141309 2.66211605 10.46003984 2 8.6875 C1.62875 7.70136719 1.2575 6.71523437 0.875 5.69921875 C0 3 0 3 0 0 Z " fill="#324DAB" transform="translate(149,161)"/>
<path d="M0 0 C6.40593286 1.10690752 12.71363856 2.33945169 19 4 C18.67 4.99 18.34 5.98 18 7 C12.06 5.35 6.12 3.7 0 2 C0 1.34 0 0.68 0 0 Z " fill="#0D2263" transform="translate(64,108)"/>
<path d="M0 0 C0.61875 0.185625 1.2375 0.37125 1.875 0.5625 C4.04160178 1.23686176 4.04160178 1.23686176 6 0 C5.34 1.98 4.68 3.96 4 6 C1.75 6.6875 1.75 6.6875 -1 7 C-3.3125 5.5625 -3.3125 5.5625 -5 4 C-3.35 3.34 -1.7 2.68 0 2 C0 1.34 0 0.68 0 0 Z " fill="#DF6C74" transform="translate(161,65)"/>
<path d="M0 0 C0.99 0.33 1.98 0.66 3 1 C5.05893621 1.22325814 7.12233653 1.40705759 9.1875 1.5625 C10.27417969 1.64628906 11.36085938 1.73007813 12.48046875 1.81640625 C13.72763672 1.90728516 13.72763672 1.90728516 15 2 C14.67 2.66 14.34 3.32 14 4 C10.04 4 6.08 4 2 4 C2 4.66 2 5.32 2 6 C1.01 5.67 0.02 5.34 -1 5 C-0.67 3.35 -0.34 1.7 0 0 Z " fill="#3D6CD2" transform="translate(89,183)"/>
<path d="M0 0 C0.99443769 2.98331306 1.02452065 4.20838759 0.66015625 7.23046875 C0.56669922 8.03291016 0.47324219 8.83535156 0.37695312 9.66210938 C0.27318359 10.49548828 0.16941406 11.32886719 0.0625 12.1875 C-0.03740234 13.03248047 -0.13730469 13.87746094 -0.24023438 14.74804688 C-0.48757108 16.83274197 -0.74301041 18.91647284 -1 21 C0.65 20.67 2.3 20.34 4 20 C3.67 21.32 3.34 22.64 3 24 C1.35 23.67 -0.3 23.34 -2 23 C-2.05413245 20.10391407 -2.09373641 17.20884805 -2.125 14.3125 C-2.14175781 13.49587891 -2.15851563 12.67925781 -2.17578125 11.83789062 C-2.2114802 7.42907071 -2.07580814 4.01268424 0 0 Z " fill="#3661CB" transform="translate(89,68)"/>
<path d="M0 0 C0.66 0 1.32 0 2 0 C2.6708712 1.6232687 3.33657029 3.24867578 4 4.875 C4.556875 6.23238281 4.556875 6.23238281 5.125 7.6171875 C6 10 6 10 6 12 C4.68 11.67 3.36 11.34 2 11 C0.80712589 7.12315913 0 4.08378077 0 0 Z " fill="#2D46B3" transform="translate(208,205)"/>
<path d="M0 0 C2.7839183 1.39195915 2.97898997 3.15575779 4 6 C5.32 5.67 6.64 5.34 8 5 C8.99 6.65 9.98 8.3 11 10 C9.54052295 9.93993922 8.08220728 9.8511311 6.625 9.75 C5.40683594 9.68039063 5.40683594 9.68039063 4.1640625 9.609375 C2 9 2 9 0.71875 7.125 C-0.11955354 4.64653737 -0.14440484 2.59928705 0 0 Z " fill="#1D3B99" transform="translate(156,171)"/>
<path d="M0 0 C1.32 0 2.64 0 4 0 C4.99 1.98 5.98 3.96 7 6 C4.69 6.33 2.38 6.66 0 7 C0 4.69 0 2.38 0 0 Z " fill="#1737A1" transform="translate(146,152)"/>
<path d="M0 0 C0.66 0 1.32 0 2 0 C2.2475 1.051875 2.495 2.10375 2.75 3.1875 C3.76700786 6.8133541 5.45373429 9.19910772 8 12 C6.35 11.67 4.7 11.34 3 11 C2.67 9.68 2.34 8.36 2 7 C1.01 7.33 0.02 7.66 -1 8 C-0.67 5.36 -0.34 2.72 0 0 Z " fill="#1F2D66" transform="translate(147,64)"/>
<path d="M0 0 C0.99 0.33 1.98 0.66 3 1 C3.94921875 2.99609375 3.94921875 2.99609375 4.6875 5.4375 C4.93886719 6.24058594 5.19023437 7.04367188 5.44921875 7.87109375 C6 10 6 10 6 12 C5.01 12 4.02 12 3 12 C2.49440092 10.56445975 1.9957251 9.1264798 1.5 7.6875 C1.2215625 6.88699219 0.943125 6.08648437 0.65625 5.26171875 C0 3 0 3 0 0 Z " fill="#2C4ABE" transform="translate(221,215)"/>
<path d="M0 0 C0.66 0 1.32 0 2 0 C2.99 2.97 3.98 5.94 5 9 C3.35 8.67 1.7 8.34 0 8 C-0.79953138 4.71303767 -1.09658936 3.28976808 0 0 Z " fill="#4B5A98" transform="translate(137,128)"/>
<path d="M0 0 C0.99 0 1.98 0 3 0 C2.67 2.31 2.34 4.62 2 7 C1.01 6.67 0.02 6.34 -1 6 C-0.67 5.34 -0.34 4.68 0 4 C-2.64 3.67 -5.28 3.34 -8 3 C-8 2.67 -8 2.34 -8 2 C-6.865625 1.855625 -5.73125 1.71125 -4.5625 1.5625 C-1.19222799 1.38828522 -1.19222799 1.38828522 0 0 Z " fill="#2C4EA8" transform="translate(99,229)"/>
<path d="M0 0 C4.20626034 1.50223584 5.73900021 4.28550034 8 8 C7.01 9.485 7.01 9.485 6 11 C4.9944239 9.54550599 3.99569565 8.08627557 3 6.625 C2.443125 5.81289062 1.88625 5.00078125 1.3125 4.1640625 C0 2 0 2 0 0 Z " fill="#173F9C" transform="translate(87,238)"/>
<path d="M0 0 C2.97 1.98 2.97 1.98 6 4 C5.67 4.99 5.34 5.98 5 7 C2.625 6.8125 2.625 6.8125 0 6 C-1.3125 3.4375 -1.3125 3.4375 -2 1 C-1.34 0.67 -0.68 0.34 0 0 Z " fill="#050A32" transform="translate(73,191)"/>
<path d="M0 0 C0.66 0 1.32 0 2 0 C2.70180531 1.4096347 3.38593958 2.82807641 4.0625 4.25 C4.44535156 5.03890625 4.82820313 5.8278125 5.22265625 6.640625 C6.08564091 9.25993522 5.93045933 10.44855176 5 13 C2.1009238 8.78316189 1.08656644 4.93133998 0 0 Z " fill="#143A9C" transform="translate(37,224)"/>
<path d="M0 0 C-1.75 2.0625 -1.75 2.0625 -4 4 C-7.07435378 3.81367553 -8.37371096 2.75085936 -11 1 C-3.375 -1.125 -3.375 -1.125 0 0 Z " fill="#04082E" transform="translate(117,185)"/>
<path d="M0 0 C0.66 0.33 1.32 0.66 2 1 C1.55090939 2.48199902 1.09043436 3.96055236 0.625 5.4375 C0.36976563 6.26121094 0.11453125 7.08492187 -0.1484375 7.93359375 C-1 10 -1 10 -3 11 C-3 9.68 -3 8.36 -3 7 C-4.32 6.67 -5.64 6.34 -7 6 C-5.35 6 -3.7 6 -2 6 C-1.855625 5.195625 -1.71125 4.39125 -1.5625 3.5625 C-1 1 -1 1 0 0 Z " fill="#1C3697" transform="translate(143,154)"/>
<path d="M0 0 C1.41702513 0.14230808 2.8336096 0.28900746 4.25 0.4375 C5.43335937 0.55931641 5.43335937 0.55931641 6.640625 0.68359375 C8.82364639 0.97634993 10.8773182 1.42064419 13 2 C13 2.66 13 3.32 13 4 C8.28596212 3.52060632 4.33420699 3.03165952 0 1 C0 0.67 0 0.34 0 0 Z " fill="#305EA4" transform="translate(62,104)"/>
<path d="M0 0 C0 3 0 3 -1.3125 4.60546875 C-1.869375 5.12753906 -2.42625 5.64960937 -3 6.1875 C-3.556875 6.71730469 -4.11375 7.24710937 -4.6875 7.79296875 C-5.120625 8.19128906 -5.55375 8.58960937 -6 9 C-6.99 8.67 -7.98 8.34 -9 8 C-7.87811441 6.85111717 -6.75238316 5.70598863 -5.625 4.5625 C-4.99851562 3.92441406 -4.37203125 3.28632812 -3.7265625 2.62890625 C-2 1 -2 1 0 0 Z " fill="#4479CF" transform="translate(35,75)"/>
<path d="M0 0 C0.66 0.33 1.32 0.66 2 1 C1.1875 3.4375 1.1875 3.4375 0 6 C-3.13349732 7.04449911 -3.98968256 6.93423645 -7 6 C-5.73134318 3.46268636 -4.50290879 3.21353154 -2 2 C-1.34 1.34 -0.68 0.68 0 0 Z " fill="#1E3D8F" transform="translate(127,87)"/>
<path d="M0 0 C0.99 0 1.98 0 3 0 C8 5.34883721 8 5.34883721 8 8 C4.63820226 6.55922954 2.40843732 4.75249979 0 2 C0 1.34 0 0.68 0 0 Z " fill="#4177DC" transform="translate(61,185)"/>
<path d="M0 0 C0.33 0.66 0.66 1.32 1 2 C0.67 2.66 0.34 3.32 0 4 C0.99 4 1.98 4 3 4 C3.66 5.98 4.32 7.96 5 10 C1.83884224 8.63016497 1.0072908 8.0109362 -1 5 C-1 4.01 -1 3.02 -1 2 C-1.99 1.67 -2.98 1.34 -4 1 C-2.68 0.67 -1.36 0.34 0 0 Z " fill="#10215C" transform="translate(145,167)"/>
<path d="M0 0 C5.75 -0.125 5.75 -0.125 8 1 C8 1.99 8 2.98 8 4 C3.545 3.01 3.545 3.01 -1 2 C-0.67 1.34 -0.34 0.68 0 0 Z " fill="#264EAF" transform="translate(147,91)"/>
<path d="M0 0 C3.16115776 1.36983503 3.9927092 1.9890638 6 5 C5.67 5.99 5.34 6.98 5 8 C3.02 5.69 1.04 3.38 -1 1 C-0.67 0.67 -0.34 0.34 0 0 Z " fill="#1A3E95" transform="translate(27,242)"/>
<path d="M0 0 C0 0.33 0 0.66 0 1 C-1.98 1.33 -3.96 1.66 -6 2 C-6.33 3.98 -6.66 5.96 -7 8 C-8.76462683 4.91190305 -9 3.76687864 -9 0 C-5.52176885 -1.15941038 -3.54104422 -0.70820884 0 0 Z " fill="#0B1F65" transform="translate(131,148)"/>
<path d="M0 0 C3.65316671 1.24976756 4.78065836 1.67098753 7 5 C5.1875 5.625 5.1875 5.625 3 6 C2.01 5.34 1.02 4.68 0 4 C0 2.68 0 1.36 0 0 Z " fill="#714A54" transform="translate(163,58)"/>
<path d="M0 0 C1.32 0 2.64 0 4 0 C3.50168276 3.68754757 2.89932357 5.60490662 0 8 C0.33 6.68 0.66 5.36 1 4 C0.34 4 -0.32 4 -1 4 C-0.67 2.68 -0.34 1.36 0 0 Z " fill="#8D6A96" transform="translate(153,52)"/>
<path d="M0 0 C0.33 0.66 0.66 1.32 1 2 C0.67 2.66 0.34 3.32 0 4 C-1.65 4 -3.3 4 -5 4 C-5 3.34 -5 2.68 -5 2 C-6.32 1.67 -7.64 1.34 -9 1 C-4.545 0.505 -4.545 0.505 0 0 Z " fill="#457EDE" transform="translate(106,179)"/>
<path d="M0 0 C0.33 0.99 0.66 1.98 1 3 C-0.65 4.65 -2.3 6.3 -4 8 C-4.25 5.6875 -4.25 5.6875 -4 3 C-2 1.1875 -2 1.1875 0 0 Z " fill="#1E42A0" transform="translate(138,77)"/>
<path d="M0 0 C4.67692308 1.47692308 4.67692308 1.47692308 6.3125 4.125 C6.539375 4.74375 6.76625 5.3625 7 6 C5.35 6 3.7 6 2 6 C1.34 4.02 0.68 2.04 0 0 Z " fill="#163990" transform="translate(95,250)"/>
<path d="M0 0 C4.42857143 5.14285714 4.42857143 5.14285714 5 9 C3.0625 8.4375 3.0625 8.4375 1 7 C0.25 3.375 0.25 3.375 0 0 Z " fill="#4C5C9B" transform="translate(142,138)"/>
<path d="M0 0 C2.475 0.99 2.475 0.99 5 2 C4.01 2.33 3.02 2.66 2 3 C0.79117904 5.00016466 0.79117904 5.00016466 0 7 C-0.66 6.67 -1.32 6.34 -2 6 C-1.34 4.02 -0.68 2.04 0 0 Z " fill="#4957A5" transform="translate(157,53)"/>
<path d="M0 0 C0.66 0 1.32 0 2 0 C2 0.66 2 1.32 2 2 C2.66 2 3.32 2 4 2 C3.67 3.32 3.34 4.64 3 6 C1.68 5.01 0.36 4.02 -1 3 C-0.67 2.01 -0.34 1.02 0 0 Z " fill="#12174C" transform="translate(39,247)"/>
<path d="M0 0 C1.98 0.66 3.96 1.32 6 2 C5.67 2.99 5.34 3.98 5 5 C3.68 4.67 2.36 4.34 1 4 C0.67 2.68 0.34 1.36 0 0 Z " fill="#5069AD" transform="translate(46,223)"/>
<path d="M0 0 C2.31 0.66 4.62 1.32 7 2 C7 2.33 7 2.66 7 3 C5.02 3 3.04 3 1 3 C1.33 3.99 1.66 4.98 2 6 C1.01 5.67 0.02 5.34 -1 5 C-0.67 3.35 -0.34 1.7 0 0 Z " fill="#4574D4" transform="translate(89,183)"/>
<path d="M0 0 C2.0625 2.3125 2.0625 2.3125 4 5 C3.67 5.99 3.34 6.98 3 8 C1.35 6.35 -0.3 4.7 -2 3 C-1.34 2.01 -0.68 1.02 0 0 Z " fill="#0D1E5D" transform="translate(55,177)"/>
<path d="M0 0 C1.9375 0.75 1.9375 0.75 4 2 C4.75 4.125 4.75 4.125 5 6 C2.5 4.6875 2.5 4.6875 0 3 C0 2.01 0 1.02 0 0 Z " fill="#0D40BA" transform="translate(0,218)"/>
<path d="M0 0 C0.66 0.99 1.32 1.98 2 3 C-0.31 4.32 -2.62 5.64 -5 7 C-5.33 6.34 -5.66 5.68 -6 5 C-4.02 3.35 -2.04 1.7 0 0 Z " fill="#122E81" transform="translate(138,89)"/>
<path d="M0 0 C0.99 0.33 1.98 0.66 3 1 C2.67 2.32 2.34 3.64 2 5 C-0.475 4.01 -0.475 4.01 -3 3 C-2.01 2.01 -1.02 1.02 0 0 Z " fill="#2D1D37" transform="translate(159,67)"/>
<path d="" fill="#000000" transform="translate(0,0)"/>
</svg>
